<?xml version="1.0" encoding="UTF-8" standalone="no"?>
<!DOCTYPE svg PUBLIC "-//W3C//DTD SVG 1.1//EN" "http://www.w3.org/Graphics/SVG/1.1/DTD/svg11.dtd">
<svg width="100%" height="100%" viewBox="0 0 1084 630" version="1.1" xmlns="http://www.w3.org/2000/svg" xmlns:xlink="http://www.w3.org/1999/xlink" xml:space="preserve" xmlns:serif="http://www.serif.com/" style="fill-rule:evenodd;clip-rule:evenodd;stroke-linejoin:round;stroke-miterlimit:1.41421;">
    <g id="Artboard1" transform="matrix(1,0,0,1,-151.111,-29.9625)">
        <rect x="151.111" y="29.963" width="1083.64" height="629.213" style="fill:none;"/>
        <g transform="matrix(1,0,0,1,84.1111,-57.0375)">
            <g id="Layer1">
                <path d="M900,198C799.318,198.304 599.932,700.038 500,700C400.056,699.962 250,700 250,700C250,700 251.024,596.877 350,598C448.976,599.123 349.454,596.877 450,598C550.546,599.123 747.542,98.174 850,98C955.734,97.82 1150,98 1150,98C1150,98 1149.11,197.696 1050,198C950.888,198.304 1000.68,197.696 900,198Z" style="fill:white;"/>
            </g>
        </g>
        <g transform="matrix(1,0,0,1,-55.8889,-159.207)">
            <g id="Layer2">
                <path d="M900,400.316C1001.37,400.645 1100,400.316 1100,400.316C1100,400.316 1080.68,498.877 980,500C879.318,501.123 800,500 800,500L870,400.316C870,400.316 798.635,399.987 900,400.316Z" style="fill:white;"/>
            </g>
        </g>
        <g id="Layer4" transform="matrix(1,0,0,1,60.1111,-59.0375)">
            <path d="M210,702C210,702 192.296,702.431 145,702C84.705,701.451 114.558,655.835 138.222,601.415C176.203,514.073 237.641,400.313 300,400.33C401.212,400.356 640,400.33 640,400.33L590,500C590,500 427.788,499.644 340,500C252.212,500.356 210,702 210,702Z" style="fill:rgb(0,222,203);"/>
        </g>
        <g transform="matrix(1,0,0,1,0.111111,-55.0375)">
            <g id="Layer11" serif:id="Layer1">
                <path d="M481,594C532.53,593.718 839.236,94.858 936.188,95.502C802.337,128.914 654.078,695.197 560,698C460.068,699.601 220,698 220,698C220,698 181.024,592.877 280,594C378.976,595.123 380.449,594.551 481,594Z" style="fill:rgb(0,222,203);"/>
            </g>
        </g>
    </g>
    <g id="Layer3">
    </g>
</svg>
