<?xml version="1.0" standalone="no"?>
<!DOCTYPE svg PUBLIC "-//W3C//DTD SVG 20010904//EN"
 "http://www.w3.org/TR/2001/REC-SVG-20010904/DTD/svg10.dtd">
<svg version="1.0" xmlns="http://www.w3.org/2000/svg"
 width="1280.000000pt" height="1280.000000pt" viewBox="0 0 1280.000000 1280.000000"
 preserveAspectRatio="xMidYMid meet">
<metadata>
Created by potrace 1.11, written by Peter Selinger 2001-2013
</metadata>
<g transform="translate(0.000000,1280.000000) scale(0.100000,-0.100000)"
fill="#000000" stroke="none">
<path d="M10287 10344 c-2 -2 -145 -11 -322 -19 -33 -2 -60 -4 -60 -5 0 -1
-16 -3 -35 -5 -117 -8 -205 -18 -285 -30 -22 -4 -53 -8 -70 -10 -43 -6 -96
-14 -125 -19 -14 -3 -41 -8 -60 -10 -19 -3 -46 -8 -60 -10 -14 -3 -34 -8 -45
-10 -11 -2 -31 -7 -45 -10 -14 -3 -36 -8 -50 -11 -14 -2 -61 -14 -105 -26 -44
-11 -87 -23 -95 -24 -8 -2 -29 -8 -47 -14 -17 -5 -34 -7 -37 -3 -3 3 -6 0 -6
-6 0 -7 -9 -12 -20 -12 -12 0 -34 -7 -50 -15 -17 -9 -32 -15 -35 -15 -16 -1
-131 -44 -213 -81 -35 -16 -68 -29 -73 -29 -5 0 -9 -5 -9 -10 0 -6 -3 -9 -7
-8 -9 2 -101 -46 -178 -92 -27 -16 -60 -35 -72 -41 -13 -7 -23 -16 -23 -21 0
-4 -4 -8 -10 -8 -16 0 -183 -122 -274 -200 -233 -200 -377 -355 -640 -690 -6
-8 -22 -32 -35 -52 -12 -21 -27 -38 -32 -38 -5 0 -9 -6 -9 -13 0 -8 -9 -22
-20 -32 -11 -10 -20 -23 -20 -29 0 -6 -10 -22 -23 -36 -13 -14 -26 -32 -30
-40 -4 -8 -29 -49 -56 -90 -112 -169 -312 -515 -427 -740 -27 -52 -53 -98 -57
-101 -5 -3 -8 -9 -8 -13 0 -3 -47 -104 -105 -223 -111 -227 -179 -369 -234
-488 -18 -38 -47 -101 -65 -140 -18 -38 -43 -92 -55 -120 -26 -59 -50 -111
-118 -255 l-49 -106 -201 1 c-111 1 -204 4 -208 8 -4 3 -14 3 -23 -1 -9 -4
-65 -7 -126 -5 -134 3 -97 3 -305 3 -96 0 -186 -1 -200 0 -14 0 -56 -2 -95 -3
-38 -1 -78 1 -88 6 -9 4 -17 4 -17 0 0 -10 -311 -10 -328 1 -6 4 -12 4 -12 -1
0 -10 -261 -10 -277 0 -7 5 -13 5 -13 0 0 -4 -58 -8 -130 -8 -71 0 -130 4
-130 8 0 5 -5 5 -12 1 -17 -11 -228 -11 -228 -1 0 5 -5 5 -12 1 -6 -4 -70 -8
-142 -10 -188 -4 -424 -17 -521 -29 -22 -3 -62 -7 -90 -10 -74 -8 -127 -15
-150 -19 -11 -2 -40 -7 -65 -10 -43 -6 -204 -34 -225 -40 -11 -3 -119 -26
-145 -31 -8 -2 -15 -4 -15 -5 0 -1 -7 -3 -15 -5 -8 -1 -35 -8 -60 -15 -25 -7
-47 -12 -50 -13 -11 -1 -228 -76 -279 -96 -359 -144 -654 -355 -853 -611 -32
-41 -62 -80 -68 -87 -5 -7 -10 -17 -10 -23 0 -5 -3 -10 -7 -10 -5 0 -13 -10
-19 -23 -6 -12 -26 -49 -45 -82 -79 -137 -144 -321 -183 -515 -3 -14 -7 -34
-9 -45 -18 -84 -27 -435 -14 -540 13 -103 27 -176 51 -270 2 -5 6 -23 10 -40
4 -16 11 -39 16 -50 4 -11 18 -47 31 -80 29 -78 78 -179 112 -232 15 -24 27
-47 27 -53 0 -5 5 -10 10 -10 6 0 10 -5 10 -11 0 -32 190 -252 301 -348 110
-96 115 -100 217 -169 166 -112 520 -281 568 -272 4 1 10 -2 13 -7 7 -9 33
-17 226 -69 72 -19 148 -37 170 -40 22 -3 47 -8 55 -10 8 -3 24 -7 35 -9 64
-10 123 -19 145 -21 22 -2 62 -6 175 -20 100 -12 400 -17 555 -9 110 6 235 14
235 15 0 2 28 6 125 20 107 15 120 17 146 23 12 3 39 8 60 11 22 4 47 9 56 12
9 3 26 7 37 9 45 10 58 13 101 24 105 28 358 116 370 130 3 3 14 8 25 9 11 2
22 8 23 13 2 5 12 9 22 9 10 0 20 3 22 8 2 4 20 15 40 24 80 37 396 249 428
287 3 3 41 37 85 76 89 78 208 197 294 294 31 35 66 74 79 87 12 13 22 26 22
29 0 3 8 13 18 23 42 45 159 199 233 307 30 44 56 82 60 85 3 3 16 23 29 45
13 22 28 45 33 50 13 15 97 146 97 151 0 2 23 40 50 84 28 44 50 83 50 86 0 3
8 18 19 32 17 26 64 107 103 182 10 19 35 64 54 100 40 72 308 602 309 610 0
3 21 48 47 100 87 180 178 379 178 391 0 5 5 9 12 9 6 0 8 3 5 6 -4 4 0 19 8
33 13 23 122 259 148 321 5 14 10 28 9 33 -1 4 3 7 8 7 6 0 10 4 10 9 0 5 14
40 32 78 17 37 32 70 33 73 0 3 15 34 32 70 53 112 73 159 73 169 0 6 5 11 10
11 6 0 10 4 10 10 0 15 128 288 233 495 8 17 31 64 52 105 164 330 341 640
518 905 88 132 229 320 303 405 55 63 274 282 323 322 48 40 162 123 191 138
14 7 27 16 30 19 12 15 132 76 143 73 4 -1 7 2 7 7 0 5 10 12 23 16 12 4 24 8
27 9 57 26 242 88 295 101 17 4 37 9 45 11 42 11 193 43 229 49 22 3 53 8 68
10 15 2 39 7 53 10 24 5 84 12 160 20 19 2 60 6 90 9 120 13 159 16 260 22
180 10 313 15 355 13 22 -1 47 -1 55 -1 53 3 316 1 485 -4 501 -13 535 -12
601 8 135 40 245 131 304 252 19 38 35 74 36 80 2 6 7 31 12 56 14 72 5 172
-21 248 -61 174 -229 308 -410 327 -124 12 -1259 30 -1270 19z m-5170 -4933
l312 -1 -56 -107 c-94 -181 -169 -318 -261 -473 -87 -145 -84 -141 -109 -177
-13 -17 -23 -34 -23 -37 0 -7 -106 -161 -172 -249 -32 -43 -58 -82 -58 -87 0
-4 -3 -10 -7 -12 -5 -1 -42 -43 -83 -93 -112 -134 -272 -294 -376 -375 -70
-55 -135 -100 -143 -100 -5 0 -11 -4 -13 -8 -3 -7 -184 -104 -190 -102 -4 2
-40 -10 -63 -21 -11 -5 -31 -12 -45 -14 -14 -3 -36 -9 -50 -14 -22 -8 -90 -25
-155 -37 -11 -2 -40 -8 -65 -13 -42 -9 -71 -13 -195 -27 -87 -11 -136 -13
-305 -14 -133 -1 -315 5 -315 10 0 1 -13 3 -30 5 -16 2 -48 7 -70 10 -22 3
-62 8 -90 11 -27 4 -55 10 -61 15 -6 5 -13 7 -16 4 -8 -9 -250 58 -343 94 -75
30 -250 122 -300 159 -161 118 -246 229 -300 393 -25 73 -29 102 -31 224 -2
124 0 160 20 251 6 28 30 99 51 148 57 134 208 277 390 369 161 81 303 128
540 177 100 21 117 24 190 35 22 3 51 7 65 10 31 5 126 15 205 21 33 3 87 8
120 10 33 3 391 8 795 10 404 2 749 5 765 7 17 1 59 1 95 0 36 -1 205 -2 377
-2z"/>
<path d="M7804 7372 l-161 -2 -101 -203 c-116 -233 -220 -451 -248 -519 -10
-27 -22 -48 -26 -48 -5 0 -8 -7 -8 -15 0 -8 -9 -31 -19 -52 -11 -21 -31 -63
-44 -94 l-25 -57 797 3 c1811 7 1783 6 1871 27 45 10 167 83 207 124 131 135
172 291 129 486 -19 83 -131 235 -205 276 -13 8 -39 22 -57 33 -19 10 -34 16
-34 13 0 -4 -7 -1 -15 6 -8 7 -15 10 -15 6 0 -3 -12 0 -27 7 -22 9 -242 12
-943 12 -503 0 -988 -1 -1076 -3z"/>
</g>
</svg>
