<?xml version="1.0" encoding="UTF-8" standalone="no"?>
<!DOCTYPE svg PUBLIC "-//W3C//DTD SVG 1.1//EN" "http://www.w3.org/Graphics/SVG/1.1/DTD/svg11.dtd">
<svg width="100%" height="100%" viewBox="0 0 1280 800" version="1.1" xmlns="http://www.w3.org/2000/svg" xmlns:xlink="http://www.w3.org/1999/xlink" xml:space="preserve" xmlns:serif="http://www.serif.com/" style="fill-rule:evenodd;clip-rule:evenodd;stroke-linecap:round;stroke-linejoin:round;stroke-miterlimit:1.5;">
    <g transform="matrix(2.07473,0,0,2.07473,-846.553,-147.862)">
        <clipPath id="_clip1">
            <path d="M1049.32,0.404L1049.32,459.744L361.638,459.744L361.638,0.404L1049.32,0.404ZM932.766,73.768C945.631,73.797 958.531,74.538 971.403,74.696L972.047,74.699L976.686,75.169C978.172,75.625 979.71,75.937 981.145,76.536C991.196,80.732 997.495,92.31 995.298,103.194C993.444,112.376 985.761,120.028 976.555,121.832C968.664,123.378 960.531,121.941 952.22,121.682C921.07,120.739 889.216,120.649 859.875,129.173C854.187,130.825 848.598,132.899 843.352,135.661C824.445,145.616 810.352,162.613 798.637,179.903C775.92,213.429 760.009,251.256 743.195,288.004C726.922,323.514 710.517,359.249 687.546,390.509C673.05,410.236 655.663,428.566 633.758,439.637C594.04,459.71 543.29,458.273 504.93,444.001C484.47,436.389 465.457,423.257 454.068,404.507C433.913,371.324 439.771,324.298 468.462,297.558C470.238,295.903 472.084,294.323 473.991,292.819C475.494,291.633 477.035,290.494 478.608,289.402C514.532,264.47 562.568,263.977 606.593,264.249C608.181,264.257 609.975,264.257 609.975,264.257C639.19,264.134 668.541,264.314 697.884,264.248L701.581,264.604C722.495,218.832 741.783,172.232 774.29,133.081C789.658,114.572 808.364,98.377 831.089,88.905C862.693,75.731 898.156,73.759 932.766,73.768ZM642.463,311.733C607.996,311.755 573.066,309.387 540.177,315.669C521.373,319.261 500.854,325.366 493.037,343.357C486.68,357.987 489.159,376.473 501.14,387.549C515.504,400.828 536.565,405.15 556.603,406.208C577.228,407.297 599.302,405.612 616.417,394.809C636.429,382.178 650.646,361.99 662.845,341.681C668.655,332.009 673.99,322.059 679.093,311.998L679.192,311.803C666.957,311.767 654.729,311.732 642.463,311.733Z"/>
        </clipPath>
        <g clip-path="url(#_clip1)">
            <path d="M741.433,241.226C763.922,241.226 868.428,240.642 875.648,240.642" style="fill:none;stroke:rgb(114,132,149);stroke-width:47.58px;"/>
        </g>
    </g>
    <g transform="matrix(2.07473,0,0,2.07473,-699.344,-215.11)">
        <path d="M568.255,296.57L571.298,296.573L574.273,296.576L577.178,296.581L580.015,296.586L582.781,296.593L585.478,296.599L588.105,296.607L593.146,296.622L597.907,296.636L600.18,296.643L602.382,296.649L604.512,296.655L606.57,296.66L608.555,296.663L610.468,296.666L612.31,296.667L613.2,296.667L614.073,296.667L614.929,296.666L615.765,296.665L616.583,296.664L617.39,296.662L620.629,296.875L621.114,296.974L621.495,296.139L622.177,294.647L623.543,291.654L624.911,288.658L626.281,285.657L626.968,284.154L627.656,282.651L628.344,281.147L629.033,279.642L629.723,278.137L630.414,276.632L631.107,275.126L631.8,273.62L632.495,272.114L633.191,270.608L633.888,269.102L634.586,267.599L634.937,266.844L635.287,266.091L635.638,265.338L635.989,264.586L636.34,263.834L636.692,263.082L637.044,262.33L637.396,261.578L637.75,260.826L638.103,260.075L638.457,259.324L638.811,258.573L639.166,257.823L639.521,257.072L639.877,256.322L640.233,255.573L640.589,254.823L640.947,254.074L641.304,253.325L641.662,252.576L642.021,251.828L642.38,251.081L642.74,250.333L643.1,249.586L643.46,248.84L643.822,248.094L644.184,247.348L644.546,246.603L644.909,245.858L645.272,245.114L645.636,244.37L646.001,243.627L646.366,242.884L646.732,242.141L647.099,241.4L647.466,240.659L647.834,239.918L648.202,239.178L648.571,238.439L648.941,237.7L649.311,236.962L649.682,236.225L650.054,235.488L650.426,234.751L650.799,234.016L651.173,233.281L651.548,232.547L651.923,231.813L652.299,231.08L652.676,230.348L653.053,229.617L653.432,228.887L653.811,228.157L654.19,227.428L654.571,226.7L654.952,225.973L655.335,225.246L655.718,224.521L656.101,223.796L656.486,223.072L656.872,222.349L657.258,221.627L657.645,220.906L658.033,220.186L658.422,219.466L658.812,218.748L659.203,218.03L659.594,217.314L659.987,216.599L660.38,215.884L660.775,215.17L661.17,214.458L661.566,213.747L661.963,213.036L662.362,212.327L662.761,211.619L663.161,210.911L663.562,210.206L663.965,209.5L664.368,208.797L664.772,208.094L665.177,207.392L665.584,206.692L665.988,205.998L666.195,205.644L666.4,205.295L666.604,204.947L666.809,204.598L667.014,204.25L667.22,203.902L667.426,203.555L667.632,203.208L667.838,202.862L668.045,202.515L668.251,202.169L668.459,201.823L668.666,201.478L668.874,201.133L669.082,200.788L669.29,200.444L669.499,200.099L669.708,199.756L669.917,199.412L670.126,199.068L670.336,198.726L670.546,198.383L670.756,198.041L670.967,197.699L671.178,197.358L671.389,197.016L671.601,196.676L671.813,196.335L672.025,195.994L672.238,195.655L672.45,195.316L672.663,194.977L672.877,194.638L673.09,194.299L673.305,193.961L673.519,193.624L673.734,193.286L673.949,192.949L674.164,192.613L674.38,192.276L674.595,191.941L674.812,191.605L675.029,191.269L675.246,190.934L675.463,190.6L675.68,190.266L675.898,189.933L676.116,189.599L676.335,189.266L676.554,188.934L676.773,188.601L676.993,188.269L677.213,187.938L677.433,187.607L677.654,187.276L677.875,186.946L678.096,186.617L678.318,186.287L678.54,185.958L678.763,185.629L678.985,185.3L679.208,184.973L679.432,184.646L679.656,184.318L679.88,183.991L680.104,183.665L680.329,183.339L680.555,183.013L680.78,182.689L681.006,182.364L681.233,182.04L681.459,181.716L681.687,181.392L681.914,181.069L682.142,180.747L682.37,180.424L682.599,180.103L682.828,179.782L683.057,179.461L683.287,179.14L683.517,178.82L683.748,178.5L683.978,178.182L684.21,177.863L684.442,177.544L684.674,177.227L684.907,176.909L685.139,176.592L685.372,176.276L685.606,175.96L685.84,175.644L686.075,175.329L686.31,175.015L686.545,174.7L686.781,174.386L687.017,174.073L687.254,173.76L687.49,173.448L687.728,173.136L687.966,172.824L688.204,172.514L688.442,172.203L688.682,171.893L688.921,171.583L689.161,171.274L689.402,170.965L689.642,170.657L689.883,170.35L690.125,170.042L690.368,169.735L690.61,169.429L690.853,169.124L691.096,168.819L691.34,168.514L691.584,168.21L691.829,167.906L692.074,167.603L692.32,167.3L692.566,166.998L692.813,166.696L693.06,166.394L693.307,166.094L693.555,165.794L693.803,165.494L694.053,165.195L694.302,164.896L694.551,164.598L694.801,164.301L695.053,164.003L695.304,163.706L695.555,163.411L695.807,163.116L696.06,162.82L696.313,162.526L696.566,162.232L696.821,161.939L697.075,161.646L697.331,161.353L697.586,161.062L697.841,160.771L698.098,160.48L698.355,160.19L698.613,159.901L698.871,159.612L699.13,159.323L699.388,159.036L699.648,158.749L699.908,158.462L700.168,158.176L700.429,157.89L700.691,157.605L700.953,157.321L701.215,157.037L701.478,156.754L701.741,156.472L702.005,156.19L702.271,155.908L702.536,155.627L702.801,155.347L703.068,155.067L703.334,154.788L703.601,154.509L703.869,154.231L704.138,153.954L704.407,153.677L704.676,153.401L704.945,153.127L705.216,152.851L705.488,152.577L705.759,152.304L706.031,152.031L706.304,151.758L706.577,151.486L706.851,151.215L707.125,150.945L707.4,150.675L707.675,150.406L707.952,150.137L708.228,149.87L708.505,149.603L708.782,149.336L709.061,149.07L709.34,148.805L709.619,148.54L709.899,148.276L710.18,148.013L710.461,147.751L710.742,147.489L711.024,147.228L711.308,146.967L711.591,146.707L711.875,146.448L712.16,146.189L712.445,145.932L712.73,145.675L713.017,145.418L713.304,145.162L713.592,144.907L713.88,144.653L714.168,144.4L714.458,144.146L714.748,143.894L715.038,143.643L715.33,143.392L715.621,143.142L715.914,142.893L716.207,142.644L716.501,142.396L716.795,142.149L717.089,141.903L717.385,141.657L717.681,141.412L717.978,141.168L718.275,140.925L718.573,140.682L718.872,140.44L719.171,140.199L719.47,139.959L719.771,139.719L720.073,139.48L720.374,139.243L720.676,139.006L720.979,138.769L721.283,138.533L721.587,138.298L721.892,138.064L722.197,137.831L722.503,137.599L722.811,137.367L723.118,137.136L723.426,136.906L723.734,136.677L724.044,136.449L724.354,136.221L724.665,135.994L724.976,135.768L725.288,135.543L725.601,135.319L725.914,135.096L726.228,134.873L726.543,134.651L726.858,134.431L727.174,134.21L727.491,133.991L727.807,133.773L728.126,133.555L728.444,133.339L728.763,133.124L729.083,132.908L729.404,132.695L729.725,132.482L730.047,132.27L730.369,132.058L730.693,131.848L731.016,131.639L731.341,131.43L731.666,131.222L731.992,131.016L732.318,130.81L732.646,130.605L732.974,130.401L733.302,130.198L733.631,129.996L733.962,129.795L734.292,129.595L734.623,129.396L734.955,129.197L735.287,129L735.621,128.804L735.955,128.608L736.289,128.414L736.624,128.22L736.961,128.028L737.298,127.836L737.635,127.646L737.972,127.456L738.311,127.268L738.65,127.08L738.99,126.894L739.331,126.708L739.673,126.523L740.015,126.34L740.357,126.158L740.7,125.976L741.044,125.796L741.39,125.616L741.735,125.438L742.081,125.26L742.428,125.084L742.775,124.909L743.123,124.734L743.472,124.561L743.821,124.389L744.171,124.218L744.522,124.048L744.874,123.879L745.226,123.711L745.578,123.545L745.932,123.379L746.286,123.214L746.641,123.051L746.996,122.889L747.352,122.727L747.707,122.568L748.029,122.425L748.349,122.283L748.67,122.142L748.991,122.003L749.313,121.864L749.635,121.726L749.957,121.589L750.279,121.453L750.603,121.318L750.926,121.184L751.249,121.05L751.574,120.918L751.898,120.786L752.222,120.656L752.547,120.526L752.872,120.397L753.198,120.269L753.524,120.142L753.85,120.016L754.176,119.89L754.504,119.765L754.83,119.641L755.158,119.518L755.486,119.396L755.813,119.275L756.142,119.154L756.471,119.035L756.799,118.916L757.129,118.798L757.458,118.68L757.788,118.564L758.118,118.448L758.448,118.333L758.779,118.219L759.11,118.106L759.441,117.993L759.772,117.882L760.104,117.771L760.436,117.66L760.768,117.551L761.1,117.442L761.433,117.334L761.766,117.227L762.099,117.12L762.432,117.014L762.766,116.909L763.1,116.805L763.434,116.701L763.768,116.598L764.103,116.496L764.438,116.395L764.773,116.294L765.108,116.194L765.444,116.095L765.779,115.996L766.115,115.898L766.451,115.801L766.787,115.704L767.124,115.608L767.461,115.513L767.798,115.419L768.135,115.325L768.472,115.231L768.81,115.139L769.148,115.047L769.486,114.956L769.824,114.865L770.162,114.775L770.5,114.686L770.839,114.597L771.178,114.509L771.517,114.422L771.856,114.335L772.195,114.249L772.535,114.164L772.874,114.079L773.214,113.995L773.554,113.911L773.894,113.828L774.235,113.746L774.576,113.664L774.916,113.583L775.257,113.502L775.597,113.422L775.939,113.343L776.28,113.264L776.621,113.186L776.963,113.108L777.304,113.031L777.646,112.955L777.988,112.879L778.33,112.803L778.672,112.729L779.014,112.655L779.356,112.581L779.698,112.508L780.041,112.436L780.384,112.364L780.726,112.292L781.069,112.221L781.412,112.151L781.755,112.082L782.098,112.012L782.441,111.944L782.785,111.876L783.128,111.808L783.471,111.741L783.815,111.675L784.158,111.609L784.502,111.543L784.846,111.478L785.19,111.414L785.533,111.35L785.878,111.287L786.221,111.224L786.566,111.162L786.909,111.1L787.254,111.039L787.598,110.978L787.942,110.917L788.286,110.858L788.631,110.798L788.975,110.74L789.32,110.681L789.664,110.623L790.008,110.566L790.353,110.509L790.697,110.453L791.042,110.397L791.386,110.341L791.731,110.287L792.075,110.232L792.42,110.178L792.764,110.125L793.109,110.071L793.454,110.019L793.798,109.967L794.142,109.915L794.487,109.864L794.832,109.813L795.176,109.763L795.521,109.713L795.865,109.663L796.209,109.614L796.554,109.566L796.898,109.518L797.243,109.47L797.587,109.423L797.931,109.376L798.275,109.33L798.619,109.284L798.964,109.238L799.308,109.193L799.652,109.149L799.996,109.104L800.34,109.061L800.683,109.017L801.027,108.974L801.371,108.932L801.715,108.889L802.058,108.848L802.408,108.806L803.088,108.725L803.774,108.645L804.46,108.567L805.146,108.49L805.831,108.415L806.515,108.342L807.199,108.27L807.883,108.199L808.566,108.13L809.249,108.063L809.931,107.997L810.612,107.932L811.292,107.869L811.972,107.807L812.652,107.747L813.33,107.688L814.008,107.63L814.685,107.574L815.362,107.519L816.037,107.466L816.712,107.413L817.385,107.363L818.058,107.313L818.73,107.265L819.401,107.218L820.071,107.172L820.74,107.127L821.408,107.084L822.075,107.042L822.74,107.001L823.405,106.961L824.069,106.922L824.731,106.885L825.392,106.849L826.052,106.814L826.71,106.78L827.368,106.747L828.024,106.715L828.678,106.684L829.332,106.654L829.984,106.626L830.634,106.598L831.283,106.571L831.931,106.546L832.577,106.521L833.221,106.497L833.864,106.475L834.505,106.453L835.145,106.432L835.783,106.412L836.42,106.393L837.054,106.375L837.687,106.358L838.318,106.342L838.948,106.327L839.575,106.312L840.201,106.298L840.825,106.285L841.447,106.273L842.067,106.262L842.684,106.252L843.3,106.242L843.914,106.233L844.526,106.225L845.136,106.217L845.744,106.211L846.349,106.205L846.952,106.199L847.554,106.195L848.152,106.191L848.749,106.187L849.343,106.185L849.935,106.183L850.525,106.181L851.112,106.181L851.697,106.181L852.279,106.181L852.859,106.182L853.436,106.184L854.011,106.186L854.583,106.188L855.153,106.192L855.72,106.195L856.284,106.2L856.846,106.204L857.405,106.209L857.961,106.215L858.514,106.221L859.065,106.228L859.612,106.235L860.157,106.242L860.699,106.25L861.237,106.258L861.773,106.267L862.306,106.276L862.836,106.285L863.362,106.295L863.886,106.305L864.411,106.315L865.437,106.336L866.456,106.359L867.46,106.383L868.452,106.407L869.429,106.433L870.393,106.459L871.341,106.486L872.276,106.513L873.195,106.541L874.099,106.569L874.987,106.597L875.859,106.626L876.716,106.655L877.555,106.683L878.378,106.712L879.185,106.74L880.739,106.795L883.63,106.899L884.96,106.946L885.589,106.968L886.199,106.988L886.787,107.008L887.351,107.025L887.891,107.042L888.407,107.057L888.897,107.07L889.36,107.081L889.804,107.091L890.003,107.095L890.202,107.099L890.393,107.102L890.576,107.105L890.752,107.107L890.918,107.109L891.076,107.111L891.224,107.112L891.363,107.112L891.527,107.112L894.766,107.339L897.944,108.004L901.002,109.095L903.882,110.593L906.532,112.469L908.902,114.689L910.947,117.21L912.63,119.987L913.919,122.967L914.791,126.094L915.228,129.311L915.224,132.558L914.777,135.774L913.896,138.899L912.599,141.875L910.908,144.647L908.855,147.163L906.479,149.375L903.824,151.244L900.939,152.733L897.878,153.816L894.698,154.472L891.459,154.689L891.23,154.689L890.966,154.688L890.701,154.686L890.436,154.684L890.168,154.681L889.899,154.677L889.629,154.673L889.356,154.668L889.081,154.663L888.796,154.657L888.242,154.645L887.669,154.631L887.084,154.615L886.487,154.598L885.877,154.58L885.255,154.56L884.618,154.539L883.969,154.517L883.303,154.494L881.939,154.446L879.04,154.342L877.504,154.287L876.72,154.26L875.921,154.232L875.109,154.205L874.284,154.177L873.446,154.149L872.596,154.122L871.734,154.095L870.859,154.069L869.972,154.043L869.074,154.017L868.164,153.993L867.243,153.969L866.31,153.946L865.367,153.923L864.413,153.902L863.445,153.882L862.963,153.872L862.474,153.863L861.983,153.854L861.49,153.846L860.994,153.837L860.495,153.829L859.995,153.822L859.492,153.814L858.986,153.808L858.479,153.801L857.969,153.795L857.457,153.789L856.942,153.784L856.426,153.779L855.907,153.775L855.386,153.771L854.864,153.768L854.339,153.765L853.812,153.762L853.283,153.76L852.752,153.759L852.22,153.758L851.685,153.758L851.149,153.758L850.61,153.758L850.07,153.76L849.529,153.761L848.985,153.764L848.44,153.767L847.893,153.77L847.345,153.775L846.795,153.779L846.243,153.785L845.69,153.791L845.135,153.798L844.579,153.805L844.021,153.813L843.462,153.822L842.902,153.832L842.34,153.842L841.777,153.853L841.213,153.864L840.647,153.877L840.081,153.89L839.513,153.904L838.944,153.919L838.374,153.934L837.803,153.95L837.23,153.967L836.657,153.985L836.083,154.004L835.508,154.023L834.932,154.044L834.355,154.065L833.777,154.087L833.199,154.11L832.619,154.133L832.039,154.158L831.459,154.184L830.877,154.21L830.295,154.237L829.713,154.266L829.129,154.295L828.546,154.325L827.962,154.356L827.377,154.388L826.792,154.421L826.206,154.455L825.621,154.49L825.034,154.527L824.448,154.564L823.861,154.602L823.275,154.641L822.687,154.681L822.1,154.722L821.513,154.764L820.926,154.808L820.338,154.852L819.751,154.897L819.163,154.944L818.576,154.992L817.989,155.04L817.402,155.09L816.815,155.141L816.228,155.193L815.642,155.246L815.056,155.301L814.47,155.356L813.885,155.413L813.3,155.471L812.715,155.53L812.131,155.59L811.547,155.652L810.964,155.714L810.382,155.778L809.8,155.843L809.218,155.91L808.638,155.977L808.051,156.047L807.769,156.081L807.479,156.116L807.19,156.151L806.901,156.187L806.612,156.223L806.323,156.26L806.035,156.296L805.747,156.333L805.459,156.371L805.171,156.409L804.884,156.447L804.597,156.485L804.31,156.524L804.023,156.562L803.737,156.602L803.45,156.641L803.165,156.681L802.879,156.722L802.593,156.762L802.308,156.803L802.024,156.844L801.739,156.886L801.455,156.928L801.171,156.97L800.887,157.012L800.604,157.055L800.321,157.099L800.039,157.142L799.756,157.186L799.474,157.23L799.193,157.275L798.911,157.32L798.63,157.365L798.35,157.41L798.069,157.456L797.79,157.502L797.51,157.549L797.231,157.596L796.952,157.643L796.674,157.691L796.396,157.738L796.118,157.787L795.84,157.835L795.564,157.884L795.287,157.933L795.011,157.983L794.736,158.033L794.46,158.083L794.186,158.134L793.911,158.185L793.637,158.236L793.364,158.288L793.091,158.34L792.818,158.392L792.546,158.445L792.274,158.498L792.003,158.551L791.733,158.605L791.462,158.659L791.192,158.713L790.923,158.768L790.654,158.823L790.386,158.878L790.118,158.934L789.851,158.99L789.584,159.047L789.318,159.103L789.052,159.161L788.787,159.218L788.522,159.276L788.258,159.334L787.994,159.393L787.731,159.451L787.468,159.511L787.206,159.57L786.945,159.63L786.684,159.69L786.424,159.751L786.164,159.812L785.905,159.873L785.646,159.935L785.388,159.997L785.131,160.059L784.874,160.122L784.618,160.185L784.363,160.248L784.107,160.312L783.853,160.376L783.6,160.44L783.346,160.505L783.094,160.57L782.842,160.635L782.591,160.701L782.341,160.767L782.091,160.833L781.842,160.9L781.593,160.967L781.346,161.035L781.098,161.102L780.852,161.171L780.606,161.239L780.361,161.308L780.117,161.377L779.873,161.446L779.63,161.516L779.388,161.586L779.147,161.656L778.906,161.727L778.666,161.798L778.427,161.87L778.188,161.941L777.95,162.014L777.713,162.086L777.477,162.159L777.241,162.232L777.006,162.305L776.772,162.379L776.539,162.453L776.307,162.527L776.075,162.602L775.844,162.677L775.614,162.752L775.385,162.828L775.157,162.903L774.929,162.98L774.702,163.056L774.476,163.133L774.251,163.21L774.027,163.288L773.803,163.365L773.581,163.443L773.359,163.522L773.138,163.6L772.918,163.679L772.699,163.758L772.481,163.838L772.263,163.918L772.046,163.998L771.831,164.078L771.616,164.159L771.402,164.24L771.189,164.321L770.978,164.402L770.766,164.485L770.555,164.567L770.346,164.649L770.138,164.731L769.931,164.814L769.724,164.897L769.518,164.981L769.314,165.065L769.11,165.148L768.907,165.233L768.706,165.317L768.505,165.402L768.305,165.487L768.106,165.572L767.908,165.657L767.711,165.743L767.515,165.829L767.32,165.915L767.128,166.001L766.912,166.098L766.697,166.195L766.483,166.293L766.268,166.392L766.055,166.491L765.841,166.591L765.628,166.692L765.414,166.794L765.201,166.896L764.988,167L764.775,167.104L764.562,167.208L764.35,167.314L764.137,167.42L763.925,167.527L763.713,167.635L763.501,167.744L763.289,167.853L763.078,167.963L762.866,168.074L762.655,168.186L762.444,168.298L762.233,168.412L762.022,168.525L761.811,168.64L761.601,168.756L761.39,168.872L761.18,168.989L760.97,169.107L760.759,169.226L760.55,169.345L760.34,169.465L760.131,169.586L759.921,169.708L759.712,169.83L759.503,169.954L759.293,170.078L759.084,170.203L758.875,170.328L758.666,170.455L758.458,170.582L758.25,170.71L758.041,170.839L757.833,170.968L757.625,171.098L757.417,171.23L757.208,171.362L757.001,171.494L756.793,171.628L756.585,171.762L756.378,171.897L756.171,172.033L755.963,172.169L755.756,172.307L755.549,172.445L755.342,172.584L755.135,172.724L754.928,172.864L754.722,173.005L754.515,173.148L754.309,173.291L754.103,173.434L753.896,173.579L753.69,173.724L753.484,173.87L753.278,174.017L753.072,174.165L752.866,174.313L752.66,174.463L752.455,174.612L752.25,174.763L752.045,174.915L751.839,175.067L751.634,175.221L751.428,175.375L751.224,175.529L751.019,175.685L750.814,175.842L750.609,175.999L750.405,176.156L750.2,176.315L749.996,176.475L749.791,176.635L749.587,176.797L749.383,176.958L749.179,177.121L748.975,177.284L748.771,177.449L748.567,177.614L748.363,177.78L748.16,177.946L747.956,178.114L747.752,178.282L747.55,178.451L747.346,178.621L747.143,178.792L746.94,178.963L746.737,179.135L746.534,179.308L746.331,179.482L746.128,179.657L745.925,179.832L745.723,180.008L745.521,180.185L745.318,180.363L745.115,180.542L744.913,180.721L744.711,180.901L744.51,181.081L744.308,181.263L744.105,181.446L743.904,181.629L743.702,181.813L743.5,181.998L743.299,182.183L743.098,182.37L742.896,182.557L742.695,182.745L742.494,182.934L742.293,183.123L742.092,183.314L741.891,183.505L741.691,183.696L741.49,183.889L741.289,184.083L741.088,184.277L740.888,184.472L740.688,184.667L740.488,184.864L740.288,185.061L740.088,185.259L739.888,185.458L739.688,185.657L739.488,185.858L739.288,186.059L739.089,186.261L738.89,186.463L738.69,186.667L738.491,186.871L738.292,187.076L738.093,187.282L737.894,187.488L737.695,187.695L737.496,187.904L737.298,188.112L737.099,188.322L736.9,188.532L736.703,188.742L736.504,188.954L736.306,189.167L736.108,189.38L735.909,189.595L735.712,189.809L735.514,190.025L735.316,190.241L735.119,190.458L734.921,190.676L734.724,190.894L734.526,191.114L734.329,191.334L734.132,191.554L733.935,191.776L733.738,191.998L733.542,192.22L733.345,192.444L733.148,192.669L732.952,192.894L732.756,193.12L732.559,193.346L732.363,193.574L732.167,193.802L731.971,194.03L731.776,194.26L731.579,194.491L731.384,194.722L731.189,194.952L730.993,195.185L730.798,195.419L730.602,195.653L730.407,195.887L730.213,196.122L730.017,196.358L729.822,196.595L729.628,196.832L729.433,197.07L729.239,197.309L729.045,197.549L728.85,197.789L728.656,198.03L728.462,198.271L728.269,198.514L728.075,198.757L727.88,199.001L727.687,199.245L727.494,199.49L727.301,199.736L727.107,199.982L726.914,200.23L726.721,200.477L726.528,200.726L726.335,200.975L726.143,201.225L725.95,201.475L725.757,201.727L725.565,201.979L725.373,202.231L725.18,202.485L724.988,202.739L724.797,202.993L724.605,203.249L724.413,203.504L724.221,203.761L724.03,204.019L723.839,204.276L723.647,204.535L723.456,204.795L723.265,205.055L723.074,205.315L722.883,205.576L722.693,205.838L722.502,206.101L722.311,206.365L722.122,206.628L721.931,206.892L721.741,207.157L721.551,207.423L721.361,207.69L721.171,207.957L720.982,208.224L720.792,208.493L720.603,208.762L720.414,209.031L720.224,209.302L720.035,209.572L719.846,209.844L719.657,210.117L719.468,210.389L719.28,210.662L719.091,210.936L718.903,211.211L718.715,211.486L718.527,211.762L718.338,212.039L718.15,212.316L717.962,212.593L717.775,212.871L717.587,213.15L717.399,213.43L717.212,213.71L717.025,213.99L716.838,214.272L716.65,214.554L716.463,214.836L716.277,215.119L716.09,215.403L715.903,215.687L715.717,215.971L715.53,216.257L715.344,216.543L715.158,216.83L714.972,217.117L714.786,217.404L714.601,217.692L714.414,217.982L714.229,218.271L714.043,218.562L713.858,218.852L713.673,219.143L713.487,219.435L713.303,219.727L713.118,220.019L712.933,220.313L712.748,220.607L712.563,220.902L712.379,221.197L712.195,221.492L712.01,221.788L711.826,222.085L711.642,222.382L711.458,222.68L711.274,222.979L711.091,223.277L710.907,223.577L710.723,223.877L710.54,224.177L710.357,224.478L710.173,224.78L709.99,225.082L709.807,225.385L709.625,225.688L709.442,225.991L709.259,226.296L709.077,226.6L708.894,226.905L708.712,227.211L708.53,227.517L708.347,227.824L708.165,228.132L707.983,228.439L707.802,228.747L707.62,229.056L707.438,229.366L707.257,229.675L707.078,229.98L706.713,230.608L706.351,231.232L705.989,231.857L705.628,232.486L705.267,233.115L704.907,233.747L704.547,234.381L704.187,235.016L703.828,235.654L703.469,236.293L703.111,236.934L702.752,237.577L702.395,238.221L702.037,238.868L701.681,239.516L701.324,240.166L700.967,240.818L700.612,241.471L700.256,242.126L699.901,242.783L699.546,243.441L699.192,244.101L698.838,244.763L698.484,245.427L698.131,246.092L697.778,246.758L697.425,247.427L697.073,248.096L696.721,248.768L696.369,249.441L696.017,250.115L695.666,250.791L695.316,251.468L694.965,252.147L694.615,252.828L694.265,253.509L693.915,254.193L693.566,254.877L693.217,255.563L692.868,256.251L692.52,256.939L692.172,257.629L691.824,258.321L691.476,259.014L691.129,259.708L690.782,260.403L690.435,261.1L690.088,261.798L689.742,262.497L689.396,263.198L689.05,263.9L688.704,264.602L688.359,265.306L688.014,266.012L687.669,266.718L687.324,267.425L686.979,268.135L686.635,268.844L686.291,269.555L685.947,270.267L685.603,270.98L685.26,271.694L684.916,272.409L684.573,273.125L684.23,273.843L683.887,274.561L683.544,275.28L683.201,276L682.859,276.721L682.516,277.443L682.174,278.166L681.832,278.889L681.49,279.615L681.148,280.34L680.807,281.066L680.465,281.793L680.123,282.522L679.782,283.251L679.441,283.98L679.099,284.711L678.758,285.442L678.417,286.174L678.076,286.907L677.736,287.638L677.053,289.11L676.372,290.582L675.69,292.057L675.009,293.533L674.328,295.013L673.647,296.495L672.965,297.979L672.284,299.464L671.602,300.952L670.921,302.442L670.239,303.933L669.557,305.426L668.191,308.417L666.824,311.413L665.455,314.411L664.769,315.912L664.082,317.414L663.395,318.916L662.707,320.419L662.019,321.922L661.329,323.425L660.639,324.928L659.947,326.432L659.254,327.935L658.56,329.439L657.865,330.941L657.169,332.444L656.473,333.943L656.122,334.696L655.773,335.447L655.423,336.197L655.073,336.947L654.722,337.697L654.371,338.447L654.019,339.197L653.668,339.946L653.315,340.695L652.963,341.444L652.61,342.192L652.256,342.94L651.902,343.688L651.548,344.435L651.193,345.183L650.838,345.93L650.483,346.676L650.126,347.422L649.77,348.167L649.413,348.913L649.055,349.657L648.697,350.401L648.339,351.146L647.98,351.889L647.62,352.632L647.26,353.374L646.899,354.116L646.538,354.857L646.176,355.598L645.814,356.339L645.451,357.079L645.088,357.818L644.724,358.556L644.359,359.294L643.994,360.032L643.628,360.769L643.262,361.505L642.895,362.24L642.527,362.975L642.159,363.709L641.79,364.443L641.42,365.176L641.05,365.908L640.679,366.639L640.308,367.369L639.935,368.099L639.562,368.829L639.188,369.557L638.814,370.284L638.439,371.012L638.063,371.737L637.687,372.462L637.309,373.187L636.931,373.91L636.552,374.633L636.172,375.354L635.792,376.075L635.411,376.795L635.029,377.514L634.645,378.232L634.262,378.949L633.877,379.665L633.492,380.38L633.106,381.094L632.719,381.807L632.331,382.52L631.942,383.231L631.552,383.941L631.161,384.65L630.77,385.358L630.377,386.065L629.984,386.771L629.589,387.475L629.194,388.179L628.798,388.882L628.401,389.583L628.002,390.283L627.603,390.982L627.203,391.68L626.802,392.377L626.4,393.073L625.997,393.767L625.595,394.455L625.389,394.806L625.187,395.152L624.984,395.497L624.781,395.842L624.577,396.187L624.372,396.532L624.168,396.876L623.964,397.22L623.76,397.563L623.555,397.906L623.349,398.25L623.144,398.592L622.938,398.934L622.732,399.277L622.525,399.618L622.319,399.959L622.112,400.3L621.904,400.641L621.697,400.981L621.489,401.321L621.281,401.66L621.073,402L620.864,402.339L620.655,402.677L620.446,403.015L620.236,403.353L620.026,403.691L619.816,404.027L619.606,404.365L619.395,404.701L619.184,405.037L618.973,405.373L618.761,405.708L618.548,406.044L618.337,406.377L618.124,406.712L617.911,407.046L617.698,407.379L617.484,407.713L617.27,408.045L617.056,408.377L616.841,408.71L616.627,409.041L616.412,409.372L616.196,409.704L615.98,410.034L615.764,410.364L615.547,410.694L615.33,411.024L615.114,411.352L614.896,411.681L614.678,412.01L614.46,412.337L614.241,412.664L614.022,412.992L613.803,413.318L613.584,413.644L613.364,413.97L613.143,414.296L612.923,414.62L612.702,414.945L612.481,415.269L612.259,415.593L612.037,415.917L611.815,416.239L611.592,416.562L611.369,416.884L611.146,417.205L610.922,417.526L610.698,417.848L610.473,418.168L610.248,418.488L610.023,418.807L609.797,419.127L609.571,419.446L609.345,419.763L609.118,420.081L608.891,420.399L608.663,420.716L608.435,421.032L608.207,421.348L607.978,421.664L607.749,421.98L607.52,422.294L607.291,422.608L607.06,422.922L606.829,423.236L606.598,423.549L606.367,423.861L606.135,424.173L605.903,424.484L605.67,424.795L605.437,425.106L605.203,425.417L604.969,425.726L604.735,426.035L604.501,426.344L604.266,426.652L604.03,426.96L603.794,427.268L603.558,427.574L603.321,427.881L603.084,428.187L602.847,428.492L602.608,428.797L602.37,429.102L602.131,429.405L601.892,429.709L601.651,430.012L601.412,430.314L601.171,430.616L600.93,430.918L600.689,431.218L600.447,431.519L600.204,431.819L599.961,432.118L599.718,432.417L599.474,432.715L599.23,433.013L598.985,433.311L598.74,433.608L598.495,433.904L598.248,434.2L598.002,434.495L597.755,434.79L597.508,435.084L597.26,435.378L597.011,435.671L596.763,435.963L596.514,436.255L596.264,436.547L596.013,436.838L595.762,437.129L595.511,437.419L595.26,437.708L595.008,437.997L594.754,438.286L594.501,438.573L594.248,438.86L593.994,439.146L593.739,439.432L593.484,439.718L593.228,440.003L592.972,440.287L592.716,440.571L592.459,440.854L592.201,441.137L591.943,441.419L591.684,441.7L591.425,441.981L591.166,442.261L590.905,442.541L590.644,442.82L590.383,443.099L590.121,443.377L589.859,443.653L589.597,443.93L589.333,444.206L589.069,444.482L588.805,444.757L588.54,445.031L588.275,445.305L588.008,445.578L587.741,445.851L587.475,446.121L587.208,446.393L586.939,446.664L586.67,446.934L586.401,447.203L586.131,447.471L585.861,447.739L585.59,448.007L585.319,448.273L585.047,448.539L584.774,448.805L584.501,449.07L584.227,449.334L583.953,449.597L583.678,449.86L583.402,450.123L583.127,450.383L582.85,450.644L582.573,450.905L582.295,451.164L582.017,451.423L581.738,451.681L581.459,451.938L581.179,452.195L580.898,452.451L580.617,452.707L580.335,452.961L580.053,453.215L579.77,453.468L579.486,453.721L579.202,453.973L578.917,454.224L578.631,454.475L578.345,454.725L578.06,454.973L577.773,455.221L577.484,455.469L577.196,455.715L576.907,455.962L576.617,456.207L576.327,456.452L576.037,456.695L575.745,456.938L575.453,457.181L575.16,457.422L574.867,457.663L574.573,457.903L574.279,458.142L573.983,458.381L573.687,458.619L573.391,458.856L573.094,459.092L572.796,459.328L572.498,459.562L572.199,459.796L571.899,460.029L571.598,460.262L571.298,460.493L570.997,460.723L570.695,460.953L570.391,461.183L570.087,461.411L569.784,461.638L569.48,461.864L569.174,462.091L568.867,462.316L568.561,462.54L568.253,462.763L567.945,462.986L567.637,463.207L567.328,463.427L567.017,463.648L566.707,463.867L566.396,464.085L566.084,464.302L565.771,464.519L565.457,464.734L565.144,464.949L564.829,465.163L564.514,465.376L564.198,465.588L563.882,465.799L563.565,466.009L563.246,466.219L562.928,466.427L562.608,466.635L562.288,466.841L561.968,467.047L561.647,467.252L561.325,467.455L561.002,467.659L560.678,467.861L560.354,468.062L560.03,468.262L559.705,468.461L559.379,468.659L559.052,468.857L558.727,469.052L558.546,469.159L558.368,469.265L558.189,469.37L558.01,469.475L557.832,469.579L557.653,469.683L557.473,469.786L557.293,469.889L557.112,469.993L556.919,470.102L556.571,470.297L556.208,470.499L555.844,470.699L555.479,470.897L555.114,471.093L554.747,471.288L554.379,471.481L554.01,471.672L553.641,471.862L553.271,472.051L552.898,472.238L552.525,472.423L552.152,472.607L551.778,472.789L551.403,472.969L551.025,473.149L550.647,473.327L550.27,473.502L549.89,473.677L549.51,473.851L549.129,474.022L548.746,474.193L548.362,474.363L547.978,474.53L547.594,474.696L547.207,474.861L546.82,475.025L546.432,475.187L546.043,475.348L545.654,475.507L545.263,475.666L544.871,475.822L544.479,475.978L544.084,476.133L543.691,476.285L543.295,476.437L542.898,476.587L542.502,476.736L542.104,476.884L541.704,477.031L541.305,477.176L540.904,477.32L540.502,477.463L540.099,477.605L539.697,477.745L539.292,477.884L538.887,478.022L538.481,478.158L538.074,478.294L537.666,478.428L537.258,478.561L536.848,478.693L536.437,478.824L536.026,478.953L535.614,479.081L535.201,479.209L534.787,479.335L534.373,479.459L533.958,479.583L533.54,479.706L533.124,479.827L532.707,479.947L532.286,480.066L531.867,480.184L531.447,480.3L531.026,480.416L530.604,480.531L530.181,480.644L529.757,480.756L529.333,480.867L528.907,480.977L528.481,481.086L528.055,481.193L527.628,481.3L527.199,481.405L526.769,481.51L526.34,481.613L525.909,481.715L525.478,481.816L525.046,481.916L524.613,482.014L524.179,482.112L523.744,482.209L523.309,482.304L522.873,482.398L522.436,482.492L521.999,482.584L521.561,482.675L521.123,482.765L520.684,482.854L520.243,482.941L519.802,483.028L519.36,483.114L518.919,483.198L518.476,483.281L518.031,483.364L517.587,483.445L517.143,483.525L516.697,483.604L516.251,483.682L515.803,483.759L515.356,483.835L514.909,483.909L514.459,483.983L514.01,484.055L513.56,484.127L513.109,484.197L512.658,484.266L512.206,484.334L511.753,484.401L511.3,484.467L510.846,484.532L510.392,484.596L509.936,484.659L509.481,484.72L509.026,484.781L508.569,484.84L508.112,484.898L507.654,484.956L507.195,485.012L506.737,485.067L506.277,485.121L505.817,485.174L505.357,485.225L504.896,485.276L504.434,485.326L503.972,485.374L503.51,485.421L503.046,485.468L502.583,485.513L502.12,485.557L501.655,485.6L501.19,485.642L500.725,485.682L500.258,485.722L499.792,485.761L499.325,485.798L498.858,485.834L498.39,485.87L497.922,485.904L497.453,485.937L496.984,485.969L496.514,486L496.045,486.029L495.575,486.058L495.104,486.085L494.633,486.111L494.162,486.137L493.69,486.161L493.218,486.184L492.745,486.205L492.273,486.226L491.799,486.246L491.325,486.264L490.851,486.281L490.377,486.297L489.902,486.312L489.427,486.326L488.952,486.339L488.477,486.351L488,486.361L487.523,486.37L487.047,486.379L486.571,486.386L486.093,486.391L485.616,486.396L485.138,486.4L484.66,486.402L484.183,486.403L483.704,486.403L483.225,486.402L482.746,486.4L482.267,486.397L481.787,486.392L481.308,486.386L480.828,486.379L480.348,486.371L479.867,486.362L479.387,486.351L478.907,486.34L478.425,486.327L477.944,486.313L477.463,486.297L476.982,486.281L476.5,486.263L476.018,486.245L475.537,486.225L475.054,486.203L474.572,486.181L474.09,486.157L473.607,486.132L473.125,486.106L472.642,486.079L472.16,486.05L471.677,486.021L471.194,485.99L470.711,485.957L470.228,485.924L469.744,485.889L469.261,485.854L468.778,485.816L468.294,485.778L467.811,485.738L467.328,485.697L466.844,485.655L466.36,485.612L465.878,485.567L465.393,485.521L464.909,485.474L464.427,485.426L463.943,485.376L463.459,485.325L462.975,485.273L462.492,485.219L462.009,485.164L461.526,485.108L461.041,485.051L460.558,484.992L460.075,484.932L459.592,484.871L459.108,484.808L458.625,484.744L458.142,484.679L457.659,484.612L457.176,484.544L456.693,484.475L456.211,484.405L455.728,484.333L455.245,484.26L454.763,484.185L454.281,484.109L453.799,484.032L453.317,483.953L452.835,483.874L452.354,483.792L451.872,483.71L451.39,483.626L450.909,483.54L450.428,483.453L449.947,483.365L449.467,483.276L448.987,483.185L448.506,483.092L448.026,482.998L447.546,482.903L447.068,482.807L446.587,482.709L446.108,482.609L445.63,482.509L445.15,482.406L444.673,482.303L444.195,482.198L443.717,482.091L443.239,481.983L442.762,481.874L442.286,481.763L441.808,481.65L441.332,481.537L440.857,481.421L440.38,481.304L439.905,481.186L439.43,481.067L438.956,480.945L438.481,480.823L438.006,480.698L437.533,480.573L437.06,480.445L436.587,480.316L436.114,480.186L435.642,480.054L435.17,479.921L434.699,479.786L434.228,479.65L433.758,479.512L433.288,479.372L432.817,479.231L432.348,479.088L431.88,478.944L431.411,478.798L430.943,478.65L430.475,478.501L430.008,478.35L429.542,478.198L429.075,478.044L428.61,477.889L428.146,477.732L427.68,477.573L427.216,477.412L426.754,477.25L426.3,477.09L426.058,477.003L425.828,476.921L425.596,476.837L425.365,476.754L425.136,476.67L424.905,476.585L424.673,476.499L424.443,476.414L424.214,476.329L423.983,476.242L423.754,476.156L423.524,476.069L423.293,475.981L423.064,475.893L422.835,475.804L422.607,475.716L422.377,475.626L422.148,475.536L421.92,475.447L421.691,475.356L421.463,475.265L421.234,475.173L421.006,475.081L420.779,474.989L420.55,474.896L420.323,474.803L420.095,474.709L419.867,474.615L419.64,474.52L419.414,474.426L419.187,474.33L418.961,474.235L418.734,474.138L418.507,474.041L418.282,473.944L418.057,473.847L417.83,473.748L417.604,473.65L417.378,473.55L417.152,473.451L416.928,473.351L416.704,473.251L416.479,473.15L416.253,473.048L416.029,472.947L415.806,472.845L415.582,472.742L415.358,472.639L415.134,472.535L414.91,472.431L414.687,472.327L414.463,472.222L414.242,472.117L414.019,472.011L413.795,471.904L413.574,471.797L413.351,471.69L413.129,471.582L412.908,471.474L412.686,471.365L412.466,471.256L412.243,471.146L412.023,471.036L411.802,470.925L411.581,470.814L411.361,470.703L411.14,470.59L410.921,470.478L410.702,470.365L410.481,470.251L410.262,470.137L410.043,470.023L409.825,469.908L409.606,469.792L409.388,469.677L409.17,469.56L408.951,469.443L408.732,469.325L408.516,469.208L408.3,469.09L408.082,468.97L407.864,468.85L407.647,468.73L407.433,468.611L407.216,468.489L406.999,468.367L406.784,468.246L406.568,468.123L406.353,468L406.139,467.877L405.923,467.753L405.709,467.629L405.494,467.503L405.281,467.378L405.068,467.252L404.852,467.125L404.64,466.998L404.427,466.871L404.214,466.743L404.001,466.614L403.79,466.485L403.578,466.356L403.365,466.225L403.154,466.095L402.944,465.964L402.731,465.831L402.522,465.699L402.311,465.566L402.1,465.433L401.891,465.3L401.681,465.165L401.471,465.03L401.262,464.894L401.054,464.759L400.846,464.622L400.637,464.485L400.429,464.347L400.221,464.209L400.015,464.071L399.808,463.932L399.6,463.791L399.393,463.651L399.188,463.511L398.982,463.369L398.776,463.227L398.571,463.085L398.366,462.942L398.161,462.799L397.956,462.654L397.752,462.509L397.549,462.365L397.346,462.219L397.141,462.072L396.939,461.925L396.738,461.779L396.534,461.63L396.333,461.481L396.131,461.332L395.929,461.182L395.729,461.033L395.528,460.881L395.328,460.73L395.128,460.579L394.928,460.425L394.729,460.273L394.53,460.119L394.332,459.965L394.133,459.81L393.936,459.655L393.738,459.499L393.54,459.342L393.343,459.185L393.147,459.027L392.951,458.87L392.756,458.711L392.56,458.551L392.364,458.391L392.17,458.231L391.976,458.07L391.783,457.909L391.589,457.746L391.395,457.583L391.202,457.419L391.01,457.256L390.817,457.091L390.625,456.925L390.436,456.761L390.244,456.594L390.053,456.426L389.863,456.259L389.674,456.092L389.484,455.923L389.295,455.753L389.106,455.583L388.919,455.413L388.731,455.242L388.544,455.07L388.357,454.898L388.171,454.725L387.985,454.552L387.799,454.377L387.613,454.203L387.429,454.027L387.244,453.851L387.06,453.675L386.877,453.498L386.694,453.321L386.511,453.141L386.329,452.963L386.148,452.784L385.966,452.604L385.786,452.423L385.604,452.241L385.426,452.06L385.246,451.878L385.066,451.694L384.889,451.511L384.71,451.327L384.532,451.141L384.355,450.956L384.179,450.77L384.003,450.583L383.827,450.396L383.652,450.208L383.478,450.02L383.303,449.83L383.129,449.64L382.956,449.45L382.783,449.259L382.611,449.067L382.439,448.875L382.268,448.683L382.098,448.49L381.927,448.295L381.757,448.1L381.588,447.905L381.42,447.709L381.252,447.513L381.084,447.316L380.917,447.118L380.751,446.921L380.584,446.72L380.419,446.521L380.254,446.321L380.089,446.12L379.926,445.919L379.763,445.718L379.6,445.515L379.438,445.312L379.276,445.107L379.115,444.903L378.955,444.699L378.795,444.493L378.636,444.287L378.476,444.08L378.319,443.873L378.161,443.665L378.004,443.456L377.848,443.247L377.692,443.037L377.537,442.826L377.382,442.616L377.228,442.404L377.075,442.192L376.922,441.979L376.769,441.765L376.618,441.551L376.467,441.336L376.317,441.122L376.167,440.906L376.018,440.69L375.869,440.472L375.721,440.255L375.574,440.037L375.428,439.818L375.282,439.599L375.136,439.378L374.992,439.158L374.848,438.937L374.704,438.715L374.562,438.492L374.42,438.27L374.278,438.046L374.138,437.822L373.997,437.597L373.858,437.372L373.72,437.147L373.582,436.921L373.444,436.693L373.307,436.465L373.172,436.238L373.036,436.009L372.901,435.779L372.768,435.549L372.634,435.319L372.502,435.088L372.37,434.857L372.239,434.625L372.108,434.391L371.979,434.158L371.85,433.925L371.722,433.691L371.594,433.455L371.467,433.219L371.341,432.984L371.216,432.747L371.091,432.51L370.967,432.272L370.844,432.034L370.722,431.795L370.6,431.556L370.479,431.316L370.359,431.076L370.239,430.835L370.12,430.593L370.002,430.351L369.885,430.109L369.769,429.865L369.653,429.621L369.538,429.378L369.424,429.133L369.31,428.887L369.198,428.642L369.087,428.396L368.975,428.149L368.865,427.901L368.756,427.654L368.647,427.406L368.539,427.156L368.431,426.907L368.325,426.658L368.22,426.408L368.115,426.156L368.011,425.904L367.908,425.653L367.805,425.4L367.704,425.147L367.603,424.895L367.503,424.641L367.404,424.386L367.306,424.132L367.208,423.876L367.111,423.62L367.016,423.364L366.921,423.108L366.826,422.85L366.733,422.593L366.64,422.334L366.548,422.075L366.458,421.817L366.368,421.557L366.278,421.297L366.19,421.037L366.102,420.776L366.016,420.515L365.93,420.252L365.844,419.99L365.76,419.727L365.677,419.465L365.595,419.201L365.513,418.937L365.432,418.672L365.352,418.408L365.273,418.142L365.195,417.876L365.117,417.61L365.04,417.343L364.965,417.076L364.89,416.809L364.816,416.541L364.743,416.272L364.671,416.004L364.599,415.735L364.529,415.465L364.459,415.196L364.39,414.925L364.322,414.654L364.255,414.383L364.189,414.111L364.124,413.84L364.06,413.568L363.996,413.294L363.933,413.021L363.872,412.748L363.811,412.474L363.751,412.2L363.691,411.925L363.633,411.65L363.576,411.375L363.519,411.099L363.464,410.823L363.409,410.547L363.355,410.269L363.302,409.992L363.25,409.715L363.199,409.437L363.148,409.158L363.099,408.88L363.05,408.6L363.003,408.322L362.956,408.042L362.91,407.762L362.865,407.481L362.821,407.2L362.778,406.919L362.736,406.638L362.694,406.356L362.654,406.074L362.614,405.791L362.576,405.509L362.538,405.226L362.501,404.942L362.465,404.659L362.43,404.375L362.395,404.09L362.362,403.805L362.33,403.52L362.298,403.235L362.267,402.949L362.238,402.664L362.209,402.377L362.181,402.091L362.154,401.804L362.128,401.517L362.102,401.229L362.078,400.941L362.055,400.653L362.032,400.365L362.01,400.076L361.99,399.787L361.97,399.498L361.951,399.209L361.933,398.919L361.915,398.628L361.899,398.338L361.884,398.048L361.869,397.757L361.856,397.465L361.843,397.174L361.831,396.882L361.82,396.59L361.81,396.298L361.801,396.005L361.793,395.712L361.786,395.419L361.779,395.125L361.774,394.832L361.769,394.538L361.765,394.244L361.763,393.949L361.761,393.654L361.76,393.359L361.759,393.064L361.76,392.77L361.762,392.472L361.764,392.176L361.767,391.88L361.771,391.584L361.776,391.289L361.782,390.994L361.788,390.699L361.795,390.405L361.803,390.111L361.812,389.818L361.822,389.525L361.832,389.231L361.844,388.939L361.856,388.647L361.868,388.355L361.882,388.063L361.897,387.772L361.912,387.481L361.928,387.19L361.945,386.9L361.962,386.61L361.981,386.32L362,386.031L362.02,385.743L362.041,385.454L362.063,385.166L362.085,384.878L362.109,384.59L362.133,384.303L362.158,384.016L362.183,383.73L362.21,383.444L362.237,383.158L362.266,382.873L362.295,382.587L362.324,382.303L362.355,382.018L362.386,381.734L362.419,381.451L362.452,381.167L362.485,380.884L362.52,380.602L362.556,380.319L362.592,380.038L362.629,379.756L362.667,379.475L362.705,379.194L362.745,378.914L362.785,378.634L362.826,378.354L362.868,378.074L362.911,377.796L362.955,377.517L362.999,377.239L363.044,376.961L363.09,376.683L363.137,376.406L363.184,376.129L363.233,375.853L363.282,375.577L363.332,375.301L363.383,375.026L363.435,374.751L363.487,374.477L363.54,374.202L363.594,373.929L363.649,373.656L363.705,373.383L363.761,373.11L363.819,372.838L363.877,372.566L363.936,372.295L363.995,372.024L364.056,371.754L364.117,371.483L364.179,371.214L364.242,370.944L364.306,370.675L364.37,370.407L364.436,370.139L364.502,369.871L364.569,369.604L364.637,369.337L364.705,369.071L364.774,368.805L364.845,368.539L364.916,368.273L364.987,368.009L365.06,367.745L365.133,367.481L365.207,367.218L365.282,366.954L365.358,366.692L365.434,366.43L365.511,366.168L365.589,365.907L365.668,365.646L365.748,365.386L365.828,365.126L365.909,364.866L365.991,364.607L366.074,364.349L366.157,364.091L366.242,363.832L366.327,363.576L366.413,363.319L366.5,363.062L366.587,362.807L366.675,362.551L366.764,362.296L366.854,362.042L366.944,361.788L367.036,361.534L367.128,361.281L367.221,361.028L367.314,360.777L367.408,360.526L367.504,360.273L367.599,360.023L367.696,359.774L367.793,359.524L367.892,359.274L367.99,359.026L368.09,358.778L368.19,358.53L368.292,358.283L368.393,358.036L368.496,357.791L368.599,357.545L368.704,357.299L368.808,357.055L368.914,356.811L369.02,356.567L369.127,356.324L369.235,356.082L369.344,355.839L369.453,355.598L369.562,355.357L369.674,355.116L369.785,354.876L369.897,354.638L370.01,354.398L370.123,354.16L370.238,353.922L370.353,353.685L370.469,353.447L370.585,353.212L370.702,352.976L370.82,352.74L370.938,352.506L371.057,352.272L371.177,352.039L371.298,351.806L371.419,351.573L371.541,351.342L371.664,351.11L371.787,350.88L371.911,350.65L372.036,350.419L372.161,350.191L372.287,349.962L372.414,349.734L372.541,349.508L372.67,349.28L372.798,349.054L372.927,348.829L373.057,348.604L373.188,348.379L373.32,348.154L373.452,347.932L373.584,347.709L373.718,347.487L373.851,347.265L373.985,347.045L374.121,346.824L374.257,346.604L374.393,346.385L374.53,346.166L374.668,345.948L374.807,345.73L374.945,345.514L375.085,345.297L375.225,345.082L375.366,344.867L375.507,344.652L375.65,344.438L375.792,344.224L375.935,344.012L376.079,343.8L376.224,343.588L376.368,343.377L376.514,343.167L376.66,342.957L376.806,342.749L376.954,342.54L377.102,342.332L377.25,342.124L377.399,341.918L377.549,341.712L377.699,341.507L377.849,341.302L378.001,341.097L378.153,340.893L378.305,340.691L378.457,340.489L378.611,340.286L378.765,340.085L378.919,339.885L379.075,339.684L379.23,339.485L379.386,339.288L379.543,339.088L379.7,338.891L379.858,338.694L380.016,338.498L380.175,338.302L380.334,338.107L380.493,337.914L380.654,337.719L380.815,337.526L380.976,337.334L381.137,337.142L381.299,336.951L381.462,336.76L381.625,336.57L381.789,336.38L381.953,336.192L382.117,336.004L382.284,335.815L382.449,335.628L382.614,335.442L382.781,335.257L382.948,335.071L383.115,334.887L383.283,334.703L383.452,334.519L383.62,334.337L383.789,334.156L383.958,333.974L384.129,333.793L384.299,333.613L384.47,333.433L384.642,333.254L384.813,333.076L384.985,332.899L385.158,332.722L385.331,332.545L385.505,332.369L385.679,332.193L385.853,332.019L386.027,331.846L386.202,331.672L386.378,331.499L386.554,331.327L386.73,331.156L386.907,330.984L387.084,330.814L387.261,330.645L387.439,330.476L387.617,330.307L387.796,330.139L387.975,329.972L388.154,329.806L388.334,329.639L388.514,329.473L388.694,329.309L388.875,329.145L389.057,328.981L389.238,328.818L389.42,328.655L389.602,328.494L389.784,328.333L389.967,328.172L390.151,328.011L390.334,327.852L390.518,327.693L390.703,327.535L390.887,327.378L391.072,327.221L391.257,327.064L391.442,326.908L391.628,326.753L391.815,326.598L392.001,326.444L392.188,326.291L392.375,326.137L392.563,325.985L392.75,325.833L392.938,325.682L393.126,325.532L393.316,325.381L393.505,325.232L393.693,325.083L393.883,324.935L394.073,324.787L394.263,324.64L394.453,324.493L394.644,324.347L394.835,324.202L395.026,324.057L395.218,323.913L395.41,323.769L395.602,323.626L395.794,323.483L395.986,323.341L396.179,323.2L396.373,323.059L396.566,322.918L396.759,322.779L396.954,322.639L397.148,322.501L397.342,322.362L397.537,322.225L397.731,322.088L397.926,321.952L398.122,321.815L398.317,321.68L398.513,321.546L398.71,321.41L398.906,321.277L399.102,321.144L399.299,321.011L399.496,320.879L399.693,320.748L399.89,320.616L400.088,320.486L400.286,320.356L400.485,320.226L400.682,320.098L400.881,319.969L401.08,319.841L401.278,319.714L401.478,319.587L401.677,319.461L401.876,319.335L402.076,319.21L402.277,319.085L402.477,318.961L402.677,318.837L402.878,318.714L403.078,318.591L403.279,318.469L403.481,318.347L403.682,318.226L403.884,318.105L404.085,317.985L404.287,317.866L404.489,317.747L404.692,317.627L404.894,317.51L405.096,317.392L405.3,317.275L405.503,317.158L405.705,317.042L405.909,316.926L406.113,316.811L406.315,316.697L406.52,316.582L406.724,316.468L406.927,316.356L407.132,316.243L407.337,316.13L407.541,316.018L407.746,315.907L407.951,315.796L408.156,315.686L408.362,315.576L408.567,315.466L408.772,315.358L408.978,315.249L409.185,315.141L409.391,315.033L409.596,314.927L409.802,314.82L410.009,314.714L410.216,314.608L410.422,314.503L410.629,314.398L410.836,314.294L411.043,314.19L411.25,314.087L411.458,313.983L411.665,313.881L411.873,313.779L412.081,313.677L412.289,313.576L412.497,313.475L412.715,313.37L413.122,313.176L413.539,312.978L413.956,312.783L414.374,312.589L414.793,312.396L415.212,312.206L415.631,312.017L416.052,311.83L416.472,311.644L416.892,311.461L417.314,311.278L417.735,311.098L418.157,310.919L418.579,310.742L419.002,310.566L419.425,310.392L419.848,310.219L420.272,310.048L420.696,309.879L421.12,309.711L421.545,309.545L421.97,309.38L422.395,309.217L422.82,309.055L423.246,308.895L423.672,308.737L424.099,308.579L424.525,308.424L424.952,308.269L425.379,308.116L425.806,307.965L426.234,307.815L426.662,307.667L427.09,307.52L427.518,307.374L427.946,307.23L428.375,307.087L428.804,306.945L429.233,306.805L429.662,306.667L430.091,306.529L430.521,306.393L430.951,306.258L431.381,306.125L431.811,305.992L432.241,305.862L432.67,305.732L433.101,305.604L433.531,305.477L433.962,305.351L434.393,305.227L434.823,305.104L435.254,304.981L435.685,304.861L436.116,304.741L436.547,304.623L436.978,304.506L437.409,304.39L437.84,304.275L438.272,304.162L438.703,304.05L439.134,303.938L439.565,303.828L439.996,303.72L440.428,303.612L440.859,303.505L441.29,303.4L441.722,303.295L442.153,303.192L442.584,303.09L443.015,302.989L443.447,302.889L443.878,302.79L444.309,302.693L444.74,302.596L445.171,302.5L445.602,302.406L446.032,302.312L446.463,302.22L446.894,302.128L447.324,302.038L447.755,301.948L448.185,301.86L448.615,301.773L449.045,301.686L449.475,301.601L449.905,301.516L450.335,301.433L450.764,301.35L451.193,301.269L451.623,301.188L452.052,301.109L452.48,301.03L452.909,300.952L453.338,300.875L453.766,300.799L454.194,300.724L454.622,300.65L455.05,300.577L455.477,300.505L455.904,300.433L456.331,300.363L456.758,300.293L457.184,300.224L457.611,300.157L458.037,300.089L458.462,300.023L458.888,299.958L459.313,299.893L459.738,299.83L460.163,299.767L460.587,299.705L461.011,299.643L461.434,299.583L461.858,299.523L462.28,299.465L462.704,299.407L463.126,299.349L463.548,299.293L463.97,299.237L464.391,299.182L464.811,299.128L465.232,299.075L465.652,299.022L466.072,298.97L466.492,298.919L466.91,298.868L467.329,298.819L467.747,298.77L468.165,298.721L468.582,298.674L468.999,298.627L469.415,298.581L469.832,298.535L470.247,298.49L470.662,298.446L471.076,298.403L471.49,298.36L471.904,298.318L472.317,298.276L472.73,298.235L473.142,298.195L473.554,298.156L473.965,298.117L474.375,298.079L474.785,298.041L475.195,298.004L475.604,297.968L476.012,297.932L476.42,297.897L476.827,297.862L477.233,297.828L477.64,297.795L478.045,297.762L478.45,297.73L478.854,297.698L479.258,297.667L479.662,297.636L480.064,297.606L480.465,297.577L480.867,297.548L481.267,297.52L481.667,297.492L482.066,297.465L482.464,297.438L482.862,297.412L483.259,297.386L483.656,297.361L484.051,297.336L484.447,297.312L484.841,297.289L485.234,297.265L485.627,297.243L486.019,297.221L486.411,297.199L486.801,297.178L487.191,297.157L487.58,297.137L487.968,297.117L488.356,297.097L488.743,297.078L489.128,297.06L489.513,297.042L489.898,297.024L490.28,297.007L490.669,296.99L491.426,296.958L492.185,296.927L492.941,296.898L493.693,296.87L494.441,296.844L495.186,296.82L495.927,296.797L496.665,296.775L497.398,296.755L498.127,296.736L498.853,296.718L499.574,296.702L500.291,296.686L501.004,296.672L501.712,296.66L502.417,296.648L503.116,296.637L503.812,296.627L504.503,296.619L505.189,296.611L505.87,296.604L506.546,296.598L507.218,296.593L507.885,296.589L508.547,296.585L509.203,296.582L509.854,296.58L510.501,296.579L511.142,296.578L511.777,296.578L512.407,296.578L513.032,296.579L513.65,296.58L514.263,296.582L514.871,296.584L515.475,296.587L516.656,296.593L517.816,296.6L518.95,296.608L520.058,296.617L521.139,296.625L523.217,296.642L524.211,296.65L525.175,296.657L526.106,296.663L527.01,296.667L527.443,296.669L527.87,296.67L528.289,296.671L528.699,296.671L529.099,296.671L529.49,296.67L529.871,296.669L530.255,296.667L532.149,296.656L534.038,296.646L535.911,296.636L537.766,296.628L539.605,296.62L541.427,296.612L543.231,296.606L545.019,296.6L546.79,296.594L548.543,296.589L550.28,296.585L552,296.581L553.702,296.578L555.388,296.575L557.056,296.573L558.707,296.572L560.341,296.57L561.958,296.569L563.558,296.569L565.14,296.569L566.705,296.569L568.255,296.57ZM563.564,344.146L561.976,344.146L560.371,344.147L558.75,344.148L557.111,344.15L555.456,344.152L553.784,344.155L552.096,344.158L550.39,344.162L548.668,344.166L546.928,344.171L545.173,344.176L543.4,344.182L541.611,344.189L539.804,344.196L537.981,344.204L536.142,344.213L534.285,344.222L532.412,344.232L530.511,344.243L530.072,344.245L529.618,344.247L529.159,344.248L528.697,344.248L528.231,344.248L527.761,344.247L527.287,344.245L526.805,344.244L525.843,344.239L524.858,344.233L523.856,344.226L522.838,344.218L520.753,344.201L519.685,344.192L518.601,344.184L517.501,344.176L516.386,344.169L515.251,344.163L514.683,344.161L514.108,344.159L513.53,344.157L512.947,344.156L512.362,344.155L511.772,344.155L511.179,344.155L510.583,344.156L509.984,344.157L509.381,344.159L508.774,344.162L508.165,344.165L507.552,344.169L506.936,344.173L506.318,344.179L505.696,344.185L505.071,344.192L504.444,344.2L503.813,344.209L503.18,344.219L502.544,344.229L501.906,344.241L501.265,344.253L500.621,344.267L499.975,344.282L499.327,344.298L498.676,344.315L498.023,344.333L497.367,344.352L496.71,344.372L496.051,344.394L495.39,344.417L494.726,344.441L494.061,344.467L493.394,344.494L492.72,344.523L492.391,344.537L492.055,344.552L491.719,344.568L491.384,344.583L491.047,344.599L490.71,344.616L490.373,344.633L490.035,344.65L489.697,344.668L489.359,344.686L489.02,344.704L488.681,344.723L488.342,344.742L488.003,344.762L487.663,344.782L487.323,344.802L486.983,344.823L486.642,344.844L486.302,344.866L485.96,344.888L485.619,344.91L485.277,344.933L484.935,344.957L484.593,344.98L484.251,345.005L483.909,345.029L483.566,345.054L483.223,345.08L482.881,345.106L482.538,345.132L482.194,345.159L481.851,345.186L481.507,345.214L481.164,345.242L480.82,345.271L480.476,345.3L480.132,345.33L479.788,345.36L479.444,345.391L479.1,345.422L478.756,345.453L478.412,345.485L478.068,345.518L477.723,345.551L477.379,345.585L477.035,345.619L476.69,345.653L476.346,345.688L476.002,345.724L475.658,345.76L475.313,345.797L474.969,345.834L474.625,345.871L474.281,345.91L473.937,345.948L473.594,345.987L473.25,346.027L472.906,346.067L472.562,346.108L472.219,346.15L471.876,346.192L471.533,346.234L471.19,346.277L470.847,346.321L470.504,346.365L470.161,346.409L469.819,346.455L469.477,346.5L469.135,346.547L468.794,346.594L468.453,346.641L468.111,346.689L467.77,346.738L467.43,346.787L467.089,346.837L466.75,346.887L466.41,346.938L466.07,346.99L465.731,347.042L465.392,347.094L465.054,347.148L464.716,347.202L464.377,347.256L464.04,347.311L463.703,347.367L463.366,347.423L463.03,347.48L462.694,347.538L462.358,347.596L462.024,347.654L461.688,347.714L461.354,347.774L461.021,347.834L460.687,347.895L460.354,347.957L460.022,348.019L459.69,348.083L459.358,348.146L459.028,348.211L458.698,348.275L458.368,348.341L458.038,348.407L457.709,348.474L457.381,348.541L457.054,348.609L456.726,348.678L456.4,348.747L456.075,348.817L455.749,348.888L455.425,348.959L455.1,349.031L454.777,349.104L454.455,349.177L454.132,349.251L453.811,349.325L453.49,349.4L453.17,349.476L452.851,349.553L452.533,349.63L452.215,349.707L451.897,349.786L451.581,349.865L451.265,349.944L450.95,350.025L450.636,350.106L450.323,350.187L450.01,350.269L449.699,350.352L449.388,350.436L449.078,350.52L448.768,350.605L448.46,350.691L448.152,350.777L447.845,350.864L447.54,350.951L447.235,351.039L446.93,351.128L446.627,351.218L446.325,351.308L446.023,351.398L445.723,351.49L445.423,351.582L445.125,351.675L444.827,351.768L444.531,351.862L444.235,351.957L443.94,352.052L443.646,352.148L443.354,352.244L443.062,352.342L442.772,352.44L442.482,352.538L442.193,352.637L441.906,352.737L441.619,352.838L441.334,352.939L441.049,353.04L440.766,353.143L440.484,353.246L440.203,353.349L439.923,353.454L439.644,353.558L439.367,353.664L439.09,353.77L438.815,353.877L438.541,353.984L438.268,354.092L437.995,354.201L437.725,354.31L437.455,354.42L437.187,354.53L436.92,354.641L436.654,354.753L436.39,354.865L436.126,354.978L435.864,355.091L435.603,355.205L435.343,355.32L435.085,355.435L434.828,355.551L434.571,355.668L434.317,355.784L434.063,355.902L433.811,356.02L433.561,356.139L433.301,356.263L433.187,356.318L433.063,356.378L432.94,356.438L432.817,356.498L432.694,356.558L432.571,356.619L432.449,356.68L432.327,356.741L432.205,356.802L432.085,356.863L431.963,356.924L431.842,356.985L431.723,357.047L431.603,357.108L431.483,357.17L431.363,357.232L431.245,357.294L431.127,357.356L431.009,357.418L430.89,357.481L430.773,357.544L430.656,357.606L430.539,357.669L430.422,357.732L430.307,357.795L430.191,357.859L430.076,357.922L429.961,357.985L429.845,358.049L429.731,358.113L429.618,358.176L429.503,358.241L429.39,358.305L429.278,358.369L429.165,358.434L429.052,358.498L428.941,358.563L428.829,358.627L428.717,358.693L428.607,358.757L428.497,358.822L428.386,358.888L428.276,358.953L428.167,359.019L428.058,359.084L427.949,359.15L427.841,359.216L427.733,359.282L427.625,359.348L427.518,359.414L427.411,359.481L427.305,359.547L427.199,359.613L427.092,359.681L426.987,359.747L426.882,359.814L426.777,359.881L426.673,359.949L426.569,360.016L426.464,360.084L426.361,360.151L426.259,360.218L426.156,360.286L426.054,360.354L425.952,360.422L425.85,360.49L425.749,360.558L425.648,360.627L425.547,360.696L425.448,360.763L425.348,360.832L425.248,360.902L425.15,360.97L425.051,361.039L424.952,361.108L424.855,361.178L424.757,361.247L424.66,361.317L424.563,361.386L424.466,361.456L424.37,361.525L424.275,361.595L424.18,361.665L424.084,361.735L423.989,361.806L423.895,361.876L423.801,361.946L423.708,362.017L423.615,362.087L423.522,362.158L423.429,362.229L423.337,362.3L423.245,362.371L423.154,362.442L423.063,362.513L422.971,362.585L422.881,362.657L422.791,362.728L422.702,362.799L422.612,362.872L422.523,362.944L422.434,363.016L422.347,363.088L422.259,363.16L422.171,363.233L422.084,363.305L421.997,363.377L421.91,363.45L421.825,363.523L421.739,363.595L421.653,363.669L421.568,363.742L421.484,363.815L421.399,363.888L421.315,363.961L421.232,364.035L421.148,364.109L421.065,364.182L420.982,364.256L420.9,364.33L420.818,364.404L420.737,364.478L420.655,364.553L420.574,364.627L420.494,364.701L420.414,364.776L420.333,364.851L420.254,364.925L420.175,365L420.096,365.075L420.017,365.151L419.939,365.226L419.861,365.301L419.784,365.377L419.706,365.452L419.63,365.527L419.553,365.603L419.477,365.679L419.4,365.756L419.326,365.831L419.25,365.907L419.175,365.984L419.101,366.06L419.027,366.137L418.952,366.214L418.879,366.291L418.806,366.368L418.733,366.445L418.661,366.521L418.588,366.599L418.516,366.677L418.444,366.755L418.373,366.831L418.302,366.909L418.231,366.987L418.161,367.065L418.091,367.144L418.021,367.222L417.951,367.301L417.883,367.378L417.814,367.457L417.745,367.537L417.677,367.615L417.609,367.694L417.542,367.773L417.474,367.853L417.407,367.932L417.34,368.013L417.274,368.092L417.209,368.171L417.142,368.252L417.077,368.332L417.012,368.412L416.947,368.493L416.882,368.574L416.818,368.655L416.755,368.735L416.69,368.817L416.626,368.898L416.564,368.979L416.501,369.061L416.438,369.143L416.376,369.224L416.314,369.306L416.252,369.389L416.191,369.471L416.131,369.553L416.069,369.636L416.008,369.719L415.948,369.802L415.888,369.886L415.829,369.969L415.769,370.052L415.71,370.135L415.651,370.22L415.593,370.304L415.534,370.388L415.476,370.473L415.419,370.557L415.361,370.642L415.303,370.728L415.246,370.813L415.19,370.898L415.134,370.983L415.078,371.069L415.022,371.155L414.966,371.242L414.91,371.328L414.855,371.415L414.801,371.502L414.746,371.589L414.691,371.676L414.638,371.763L414.584,371.851L414.53,371.939L414.477,372.028L414.424,372.116L414.371,372.205L414.318,372.294L414.266,372.382L414.214,372.471L414.162,372.561L414.111,372.652L414.059,372.742L414.009,372.831L413.958,372.923L413.907,373.013L413.857,373.104L413.807,373.196L413.757,373.287L413.708,373.379L413.658,373.471L413.61,373.564L413.561,373.657L413.512,373.749L413.464,373.842L413.416,373.936L413.368,374.03L413.32,374.125L413.273,374.218L413.226,374.313L413.179,374.409L413.133,374.503L413.087,374.599L413.041,374.695L412.994,374.792L412.949,374.887L412.904,374.984L412.859,375.082L412.814,375.178L412.769,375.277L412.725,375.375L412.681,375.473L412.637,375.571L412.593,375.671L412.55,375.77L412.507,375.87L412.464,375.97L412.422,376.07L412.379,376.171L412.337,376.273L412.295,376.374L412.253,376.475L412.212,376.578L412.171,376.68L412.13,376.783L412.089,376.886L412.049,376.99L412.008,377.094L411.968,377.199L411.929,377.303L411.889,377.408L411.85,377.514L411.811,377.62L411.772,377.726L411.734,377.833L411.696,377.94L411.658,378.047L411.621,378.155L411.583,378.264L411.546,378.373L411.509,378.481L411.472,378.591L411.436,378.702L411.4,378.811L411.364,378.922L411.328,379.034L411.293,379.146L411.258,379.257L411.223,379.37L411.189,379.483L411.154,379.597L411.12,379.711L411.086,379.825L411.053,379.94L411.02,380.055L410.987,380.171L410.954,380.286L410.922,380.403L410.89,380.521L410.858,380.639L410.826,380.757L410.795,380.875L410.764,380.994L410.733,381.113L410.703,381.233L410.673,381.354L410.643,381.475L410.613,381.596L410.584,381.718L410.555,381.841L410.526,381.963L410.498,382.087L410.469,382.211L410.442,382.335L410.414,382.46L410.387,382.586L410.36,382.712L410.333,382.839L410.307,382.966L410.281,383.093L410.255,383.221L410.23,383.35L410.205,383.479L410.18,383.609L410.155,383.739L410.131,383.87L410.107,384.001L410.084,384.133L410.061,384.265L410.038,384.399L410.015,384.532L409.993,384.666L409.971,384.801L409.95,384.936L409.928,385.072L409.907,385.208L409.887,385.345L409.867,385.483L409.847,385.621L409.827,385.759L409.808,385.899L409.789,386.038L409.771,386.179L409.753,386.32L409.735,386.461L409.717,386.604L409.7,386.746L409.684,386.889L409.667,387.033L409.651,387.178L409.636,387.323L409.62,387.469L409.606,387.615L409.591,387.762L409.577,387.909L409.563,388.057L409.55,388.206L409.537,388.355L409.524,388.506L409.512,388.656L409.5,388.807L409.489,388.959L409.478,389.112L409.467,389.265L409.457,389.419L409.447,389.573L409.438,389.728L409.429,389.883L409.42,390.039L409.412,390.196L409.404,390.354L409.396,390.512L409.389,390.671L409.383,390.83L409.377,390.99L409.371,391.151L409.366,391.312L409.361,391.474L409.356,391.637L409.352,391.8L409.349,391.964L409.346,392.129L409.343,392.294L409.341,392.46L409.339,392.626L409.338,392.793L409.337,392.959L409.336,393.113L409.336,393.264L409.337,393.414L409.338,393.564L409.339,393.714L409.341,393.863L409.344,394.011L409.346,394.159L409.35,394.306L409.353,394.453L409.357,394.599L409.362,394.744L409.367,394.89L409.372,395.034L409.378,395.178L409.384,395.322L409.391,395.464L409.398,395.607L409.406,395.749L409.414,395.89L409.422,396.031L409.431,396.171L409.44,396.311L409.449,396.451L409.459,396.589L409.47,396.728L409.481,396.866L409.492,397.003L409.503,397.139L409.515,397.276L409.528,397.412L409.54,397.547L409.553,397.681L409.567,397.816L409.581,397.95L409.595,398.083L409.61,398.216L409.625,398.348L409.64,398.48L409.656,398.611L409.672,398.742L409.689,398.873L409.706,399.002L409.723,399.132L409.741,399.261L409.759,399.389L409.777,399.517L409.796,399.645L409.815,399.772L409.835,399.899L409.854,400.025L409.875,400.151L409.895,400.276L409.916,400.401L409.937,400.526L409.959,400.65L409.981,400.773L410.003,400.896L410.026,401.019L410.049,401.142L410.072,401.264L410.095,401.385L410.119,401.505L410.144,401.626L410.168,401.747L410.193,401.866L410.219,401.985L410.244,402.105L410.27,402.223L410.296,402.341L410.323,402.459L410.35,402.577L410.377,402.693L410.405,402.809L410.433,402.926L410.461,403.042L410.489,403.157L410.518,403.272L410.547,403.387L410.577,403.501L410.607,403.615L410.637,403.728L410.667,403.842L410.698,403.954L410.729,404.066L410.76,404.179L410.792,404.291L410.824,404.402L410.856,404.513L410.889,404.624L410.922,404.734L410.955,404.844L410.988,404.953L411.022,405.062L411.056,405.172L411.091,405.28L411.126,405.389L411.161,405.497L411.196,405.604L411.231,405.711L411.267,405.819L411.304,405.926L411.34,406.032L411.377,406.137L411.414,406.244L411.452,406.35L411.489,406.454L411.527,406.559L411.566,406.664L411.604,406.768L411.643,406.872L411.682,406.976L411.722,407.079L411.762,407.182L411.802,407.285L411.842,407.388L411.883,407.491L411.924,407.593L411.965,407.694L412.007,407.796L412.049,407.897L412.091,407.997L412.133,408.098L412.176,408.2L412.219,408.3L412.262,408.399L412.306,408.498L412.35,408.599L412.395,408.698L412.439,408.796L412.484,408.896L412.529,408.995L412.574,409.092L412.62,409.19L412.666,409.289L412.713,409.386L412.759,409.483L412.806,409.581L412.854,409.678L412.901,409.774L412.949,409.87L412.997,409.967L413.046,410.064L413.094,410.159L413.143,410.255L413.193,410.35L413.242,410.445L413.292,410.541L413.343,410.636L413.394,410.731L413.444,410.825L413.495,410.919L413.547,411.013L413.599,411.108L413.651,411.202L413.703,411.294L413.756,411.387L413.809,411.482L413.863,411.575L413.916,411.667L413.97,411.76L414.024,411.852L414.079,411.945L414.135,412.038L414.189,412.129L414.245,412.22L414.301,412.312L414.357,412.405L414.414,412.496L414.47,412.587L414.528,412.678L414.585,412.769L414.643,412.86L414.701,412.95L414.759,413.04L414.819,413.131L414.878,413.221L414.937,413.31L414.997,413.401L415.057,413.491L415.117,413.58L415.178,413.67L415.239,413.759L415.301,413.848L415.362,413.937L415.425,414.027L415.487,414.115L415.55,414.204L415.613,414.292L415.676,414.38L415.74,414.468L415.804,414.556L415.869,414.645L415.934,414.733L415.999,414.82L416.065,414.908L416.13,414.996L416.196,415.083L416.263,415.171L416.33,415.257L416.397,415.344L416.464,415.431L416.533,415.518L416.601,415.605L416.669,415.691L416.738,415.777L416.807,415.863L416.877,415.95L416.948,416.036L417.018,416.122L417.089,416.208L417.16,416.295L417.231,416.379L417.303,416.465L417.375,416.55L417.447,416.635L417.521,416.721L417.594,416.806L417.668,416.892L417.742,416.976L417.815,417.06L417.89,417.145L417.966,417.23L418.041,417.315L418.117,417.399L418.193,417.483L418.27,417.567L418.347,417.651L418.424,417.734L418.501,417.818L418.58,417.902L418.658,417.986L418.737,418.07L418.816,418.153L418.896,418.237L418.975,418.319L419.055,418.402L419.137,418.486L419.217,418.568L419.299,418.651L419.381,418.735L419.463,418.816L419.545,418.899L419.628,418.981L419.712,419.064L419.796,419.147L419.879,419.228L419.964,419.31L420.049,419.392L420.134,419.474L420.22,419.555L420.306,419.637L420.392,419.718L420.479,419.799L420.566,419.881L420.653,419.961L420.741,420.043L420.83,420.124L420.918,420.204L421.008,420.286L421.097,420.366L421.186,420.447L421.276,420.527L421.368,420.608L421.459,420.688L421.549,420.767L421.641,420.847L421.735,420.928L421.827,421.008L421.919,421.087L422.013,421.167L422.107,421.246L422.2,421.325L422.294,421.404L422.39,421.483L422.486,421.563L422.582,421.642L422.677,421.72L422.773,421.798L422.87,421.877L422.968,421.956L423.066,422.035L423.164,422.113L423.261,422.19L423.36,422.268L423.46,422.347L423.559,422.424L423.659,422.502L423.76,422.58L423.861,422.657L423.961,422.734L424.063,422.811L424.166,422.889L424.267,422.965L424.371,423.043L424.473,423.119L424.577,423.195L424.681,423.272L424.784,423.348L424.89,423.425L424.996,423.501L425.1,423.576L425.206,423.652L425.314,423.729L425.42,423.804L425.526,423.879L425.633,423.954L425.741,424.029L425.85,424.105L425.958,424.18L426.067,424.254L426.177,424.33L426.287,424.404L426.396,424.478L426.506,424.552L426.618,424.627L426.73,424.701L426.841,424.774L426.953,424.848L427.065,424.922L427.179,424.996L427.292,425.069L427.405,425.142L427.519,425.215L427.634,425.288L427.749,425.361L427.863,425.433L427.98,425.506L428.094,425.578L428.211,425.65L428.329,425.723L428.444,425.794L428.562,425.866L428.681,425.938L428.798,426.01L428.916,426.081L429.036,426.152L429.156,426.224L429.274,426.294L429.394,426.365L429.516,426.436L429.636,426.506L429.757,426.576L429.878,426.646L430.001,426.717L430.124,426.787L430.245,426.856L430.369,426.926L430.492,426.995L430.614,427.063L430.74,427.134L430.865,427.203L430.989,427.271L431.113,427.339L431.24,427.408L431.367,427.477L431.493,427.545L431.618,427.612L431.745,427.68L431.873,427.748L432.001,427.815L432.13,427.883L432.258,427.95L432.387,428.017L432.515,428.083L432.645,428.15L432.777,428.218L432.905,428.283L433.036,428.349L433.167,428.415L433.299,428.481L433.43,428.547L433.561,428.612L433.695,428.678L433.827,428.743L433.96,428.808L434.094,428.873L434.227,428.937L434.363,429.002L434.496,429.066L434.63,429.13L434.767,429.194L434.902,429.258L435.037,429.321L435.173,429.385L435.31,429.448L435.446,429.511L435.583,429.573L435.721,429.636L435.86,429.699L435.997,429.761L436.134,429.823L436.274,429.885L436.415,429.947L436.554,430.009L436.693,430.07L436.832,430.131L436.972,430.192L437.114,430.253L437.256,430.314L437.397,430.374L437.538,430.434L437.681,430.495L437.822,430.554L437.966,430.614L438.109,430.674L438.252,430.733L438.395,430.792L438.54,430.851L438.683,430.91L438.828,430.968L438.974,431.027L439.118,431.085L439.264,431.143L439.409,431.201L439.556,431.258L439.702,431.316L439.848,431.373L439.996,431.43L440.143,431.487L440.291,431.544L440.438,431.6L440.587,431.656L440.735,431.712L440.883,431.768L441.034,431.824L441.184,431.879L441.332,431.934L441.481,431.989L441.633,432.044L441.784,432.099L441.933,432.153L442.086,432.208L442.227,432.258L442.54,432.369L442.845,432.475L443.151,432.581L443.457,432.686L443.766,432.79L444.075,432.894L444.385,432.996L444.697,433.098L445.009,433.199L445.322,433.298L445.637,433.397L445.952,433.496L446.269,433.593L446.587,433.69L446.904,433.785L447.224,433.88L447.545,433.974L447.866,434.067L448.188,434.16L448.512,434.251L448.836,434.342L449.161,434.431L449.487,434.52L449.814,434.608L450.142,434.695L450.47,434.781L450.8,434.866L451.13,434.951L451.462,435.034L451.795,435.117L452.127,435.199L452.461,435.279L452.795,435.359L453.13,435.438L453.467,435.517L453.804,435.594L454.142,435.67L454.48,435.746L454.819,435.82L455.16,435.894L455.5,435.967L455.841,436.039L456.183,436.11L456.525,436.179L456.869,436.249L457.214,436.317L457.558,436.384L457.903,436.451L458.249,436.516L458.596,436.581L458.944,436.645L459.291,436.707L459.64,436.769L459.988,436.83L460.338,436.89L460.688,436.949L461.039,437.007L461.39,437.065L461.742,437.121L462.095,437.176L462.447,437.231L462.8,437.285L463.154,437.337L463.508,437.389L463.863,437.44L464.218,437.49L464.573,437.539L464.929,437.587L465.286,437.634L465.642,437.68L466,437.726L466.358,437.77L466.715,437.813L467.073,437.856L467.432,437.897L467.792,437.938L468.151,437.978L468.51,438.017L468.87,438.055L469.23,438.092L469.591,438.128L469.952,438.163L470.312,438.197L470.674,438.231L471.036,438.263L471.397,438.295L471.76,438.325L472.122,438.355L472.484,438.384L472.846,438.412L473.209,438.439L473.572,438.465L473.935,438.49L474.298,438.514L474.661,438.537L475.025,438.56L475.389,438.581L475.752,438.602L476.116,438.622L476.48,438.64L476.844,438.658L477.208,438.675L477.572,438.691L477.936,438.706L478.3,438.72L478.664,438.734L479.028,438.746L479.392,438.758L479.756,438.768L480.119,438.778L480.484,438.787L480.848,438.795L481.212,438.802L481.575,438.808L481.939,438.813L482.303,438.818L482.666,438.821L483.029,438.824L483.393,438.826L483.755,438.826L484.118,438.826L484.481,438.825L484.843,438.824L485.206,438.821L485.568,438.817L485.929,438.813L486.291,438.808L486.653,438.801L487.014,438.794L487.374,438.786L487.735,438.778L488.096,438.768L488.456,438.758L488.816,438.746L489.175,438.734L489.535,438.721L489.893,438.707L490.251,438.692L490.609,438.676L490.967,438.66L491.325,438.643L491.681,438.624L492.038,438.605L492.395,438.585L492.75,438.565L493.106,438.543L493.461,438.521L493.814,438.497L494.168,438.473L494.522,438.449L494.874,438.423L495.227,438.396L495.579,438.369L495.931,438.341L496.281,438.312L496.63,438.282L496.981,438.251L497.33,438.22L497.678,438.188L498.026,438.155L498.374,438.121L498.72,438.086L499.067,438.051L499.412,438.014L499.757,437.977L500.101,437.94L500.445,437.901L500.787,437.862L501.129,437.821L501.471,437.78L501.811,437.739L502.151,437.696L502.49,437.653L502.828,437.609L503.166,437.564L503.503,437.519L503.838,437.472L504.174,437.425L504.509,437.377L504.841,437.329L505.174,437.28L505.506,437.23L505.837,437.179L506.167,437.128L506.497,437.075L506.825,437.022L507.151,436.969L507.479,436.914L507.805,436.859L508.128,436.803L508.452,436.747L508.774,436.69L509.097,436.632L509.418,436.573L509.736,436.514L510.055,436.454L510.373,436.393L510.689,436.332L511.004,436.27L511.318,436.207L511.631,436.144L511.944,436.08L512.255,436.015L512.566,435.95L512.874,435.884L513.181,435.818L513.488,435.75L513.793,435.683L514.097,435.614L514.399,435.545L514.702,435.475L515.002,435.405L515.302,435.334L515.6,435.262L515.896,435.191L516.191,435.118L516.486,435.044L516.779,434.97L517.07,434.896L517.36,434.821L517.649,434.746L517.936,434.67L518.222,434.593L518.507,434.516L518.79,434.438L519.072,434.36L519.353,434.281L519.631,434.202L519.909,434.122L520.186,434.041L520.459,433.961L520.733,433.88L521.005,433.798L521.275,433.716L521.543,433.633L521.81,433.55L522.076,433.466L522.339,433.382L522.601,433.298L522.862,433.213L523.122,433.127L523.379,433.042L523.634,432.956L523.889,432.869L524.141,432.783L524.393,432.695L524.642,432.607L524.888,432.52L525.134,432.432L525.378,432.343L525.62,432.254L525.86,432.165L526.1,432.075L526.336,431.985L526.57,431.895L526.804,431.804L527.035,431.714L527.264,431.623L527.492,431.532L527.717,431.441L527.941,431.349L528.163,431.257L528.383,431.165L528.601,431.073L528.816,430.981L529.031,430.889L529.244,430.796L529.453,430.703L529.661,430.611L529.867,430.518L530.071,430.425L530.273,430.332L530.473,430.238L530.671,430.145L530.865,430.053L531.059,429.96L531.251,429.866L531.441,429.773L531.628,429.68L531.812,429.588L531.994,429.495L532.175,429.402L532.353,429.309L532.529,429.217L532.703,429.125L532.875,429.033L533.044,428.941L533.211,428.849L533.375,428.758L533.551,428.659L533.619,428.621L533.697,428.576L533.776,428.531L533.855,428.485L533.933,428.44L534.011,428.395L534.088,428.35L534.164,428.305L534.24,428.26L534.312,428.217L534.517,428.094L534.719,427.972L534.921,427.849L535.123,427.725L535.326,427.6L535.527,427.475L535.728,427.35L535.93,427.223L536.131,427.095L536.333,426.967L536.534,426.837L536.736,426.708L536.937,426.577L537.138,426.445L537.338,426.313L537.54,426.18L537.741,426.046L537.942,425.911L538.142,425.775L538.342,425.639L538.544,425.502L538.744,425.364L538.944,425.225L539.144,425.086L539.344,424.945L539.545,424.804L539.744,424.663L539.944,424.52L540.145,424.376L540.345,424.232L540.544,424.087L540.744,423.94L540.944,423.794L541.143,423.647L541.342,423.498L541.543,423.349L541.742,423.199L541.94,423.049L542.139,422.897L542.339,422.744L542.538,422.591L542.737,422.437L542.936,422.283L543.135,422.127L543.334,421.971L543.532,421.813L543.731,421.656L543.93,421.497L544.128,421.337L544.326,421.177L544.525,421.016L544.723,420.854L544.921,420.691L545.12,420.528L545.318,420.363L545.515,420.198L545.714,420.032L545.912,419.865L546.11,419.698L546.307,419.529L546.505,419.36L546.702,419.19L546.9,419.02L547.098,418.847L547.296,418.675L547.492,418.502L547.69,418.328L547.887,418.154L548.084,417.978L548.281,417.801L548.478,417.624L548.675,417.446L548.872,417.267L549.069,417.088L549.266,416.907L549.463,416.726L549.659,416.544L549.855,416.361L550.052,416.178L550.248,415.994L550.444,415.809L550.641,415.622L550.837,415.436L551.033,415.249L551.229,415.06L551.425,414.871L551.621,414.681L551.817,414.491L552.012,414.299L552.208,414.107L552.403,413.914L552.599,413.72L552.795,413.525L552.99,413.33L553.186,413.133L553.38,412.937L553.575,412.74L553.771,412.54L553.966,412.341L554.16,412.141L554.355,411.941L554.55,411.739L554.745,411.536L554.939,411.334L555.133,411.13L555.328,410.925L555.523,410.719L555.717,410.513L555.911,410.306L556.105,410.098L556.299,409.89L556.493,409.68L556.687,409.47L556.881,409.259L557.074,409.048L557.268,408.835L557.461,408.623L557.655,408.408L557.848,408.194L558.042,407.978L558.235,407.762L558.428,407.546L558.621,407.328L558.814,407.109L559.007,406.89L559.199,406.671L559.392,406.45L559.585,406.228L559.777,406.006L559.969,405.783L560.162,405.56L560.354,405.335L560.546,405.11L560.738,404.884L560.93,404.658L561.122,404.43L561.314,404.202L561.506,403.973L561.697,403.744L561.889,403.514L562.08,403.283L562.272,403.051L562.462,402.819L562.654,402.586L562.845,402.351L563.036,402.117L563.227,401.882L563.417,401.646L563.608,401.409L563.799,401.171L563.989,400.933L564.18,400.694L564.37,400.454L564.56,400.214L564.75,399.973L564.94,399.731L565.13,399.489L565.32,399.246L565.51,399.002L565.699,398.757L565.889,398.512L566.079,398.266L566.268,398.02L566.457,397.772L566.646,397.524L566.835,397.275L567.024,397.026L567.213,396.775L567.402,396.525L567.59,396.274L567.779,396.022L567.967,395.769L568.156,395.515L568.344,395.261L568.533,395.005L568.72,394.75L568.908,394.495L569.096,394.237L569.284,393.98L569.472,393.721L569.659,393.463L569.847,393.203L570.034,392.942L570.221,392.682L570.408,392.421L570.595,392.159L570.783,391.895L570.969,391.632L571.156,391.368L571.343,391.103L571.529,390.838L571.716,390.571L571.902,390.305L572.088,390.038L572.275,389.769L572.461,389.5L572.646,389.232L572.833,388.961L573.018,388.691L573.204,388.42L573.39,388.148L573.575,387.875L573.761,387.602L573.946,387.329L574.131,387.054L574.316,386.779L574.501,386.503L574.686,386.227L574.87,385.951L575.055,385.673L575.239,385.395L575.424,385.117L575.608,384.837L575.792,384.558L575.977,384.277L576.161,383.996L576.345,383.714L576.528,383.433L576.712,383.149L576.896,382.865L577.079,382.582L577.263,382.297L577.446,382.011L577.629,381.726L577.812,381.44L577.995,381.153L578.178,380.865L578.362,380.576L578.544,380.288L578.727,379.999L578.909,379.709L579.092,379.418L579.274,379.127L579.456,378.836L579.638,378.543L579.82,378.251L580.002,377.958L580.184,377.664L580.366,377.369L580.547,377.075L580.729,376.779L580.91,376.483L581.092,376.186L581.273,375.888L581.454,375.592L581.635,375.293L581.816,374.994L581.997,374.694L582.178,374.395L582.359,374.094L582.539,373.793L582.719,373.492L582.9,373.191L583.08,372.888L583.261,372.584L583.441,372.28L583.621,371.976L583.8,371.672L583.98,371.367L584.16,371.061L584.34,370.754L584.516,370.453L584.878,369.833L585.236,369.216L585.594,368.597L585.952,367.976L586.309,367.353L586.666,366.728L587.023,366.101L587.379,365.472L587.735,364.841L588.09,364.208L588.445,363.573L588.8,362.937L589.155,362.298L589.509,361.658L589.863,361.016L590.216,360.372L590.569,359.726L590.922,359.079L591.274,358.429L591.627,357.778L591.978,357.126L592.33,356.471L592.681,355.814L593.032,355.157L593.382,354.497L593.733,353.836L594.083,353.173L594.432,352.508L594.782,351.842L595.131,351.174L595.479,350.505L595.828,349.834L596.176,349.161L596.524,348.487L596.872,347.812L597.219,347.134L597.566,346.456L597.913,345.776L598.26,345.094L598.606,344.411L598.705,344.216L597.762,344.213L593.002,344.198L587.97,344.183L585.353,344.176L582.668,344.169L579.915,344.163L577.094,344.158L574.206,344.153L571.249,344.15L568.224,344.147L566.689,344.146L565.134,344.146L563.564,344.146Z" style="fill:rgb(0,222,203);"/>
    </g>
</svg>
